<svg xmlns="http://www.w3.org/2000/svg" width="155" height="40" fill="none"><path fill="#111" d="M28.727 16.875c2.984 0 3.656 1.298 3.656 2.917 0 1.717-.813 2.946-3.643 2.946-2.813 0-3.626-1.158-3.626-2.946 0-1.759.886-2.917 3.613-2.917Zm31.185 0c2.984 0 3.655 1.298 3.655 2.917 0 1.717-.813 2.946-3.643 2.946-2.812 0-3.626-1.158-3.626-2.946 0-1.759.887-2.917 3.614-2.917Z"/><path fill="#111" fill-rule="evenodd" d="M2.308 36.667V2.902h150.795v33.765H2.308Zm71.868-1.905h77.025V4.807H74.176v29.955Zm-45.434-9.15c5.297 0 7.524-2.288 7.524-5.862 0-3.633-2.508-5.792-7.524-5.792-4.94 0-7.54 2.345-7.54 5.792 0 3.89 2.728 5.862 7.54 5.862ZM10.323 14.215v11.226h10.692v-2.99h-6.824v-8.236h-3.868Zm37.91 11.226-.1-1.088a6.84 6.84 0 0 1-4.455 1.26c-2.384 0-4.37-.716-5.483-2.16a5.911 5.911 0 0 1-1.057-3.604 5.588 5.588 0 0 1 1.089-3.503c1.127-1.401 3.17-2.33 6.21-2.33 3.499 0 5.555 1.072 6.44 2.874.189.424.3.88.328 1.343h-3.7a1.525 1.525 0 0 0-.5-.715 3.93 3.93 0 0 0-2.5-.643 3.675 3.675 0 0 0-2.883.901 3.107 3.107 0 0 0-.585 2.102 3.18 3.18 0 0 0 .542 2.016 3.748 3.748 0 0 0 2.955.987 4.123 4.123 0 0 0 2.942-.915c.177-.222.3-.483.356-.762H43.85V18.79h7.452v6.65h-3.07Zm11.693.171c5.297 0 7.525-2.288 7.525-5.862 0-3.633-2.513-5.792-7.525-5.792-4.94 0-7.539 2.345-7.539 5.792 0 3.89 2.727 5.862 7.539 5.862Z" clip-rule="evenodd"/><path fill="#111" d="M80.692 25.398V14.172h2.758v11.226h-2.758Zm16.919-4.69c-.699.915-1.902 1.333-3.597 1.343l-5.098-.014v3.361h-2.699V14.172h7.798a4.47 4.47 0 0 1 3.469 1.13 4.14 4.14 0 0 1 .842 2.817c.063.92-.19 1.832-.715 2.589Zm-2.213-3.66c-.285-.429-.9-.667-1.942-.667h-4.555v3.417h4.526c1.113 0 1.7-.228 1.971-.672.16-.313.23-.665.2-1.016a2.178 2.178 0 0 0-.2-1.062Zm10.881 8.522c-5.084 0-6.64-1.905-6.64-3.79h2.885c0 .93 1.27 1.63 3.883 1.63 2.598 0 3.284-.458 3.284-1.201 0-.83-.514-1.087-2.927-1.358-.476-.043-1.77-.2-2.256-.272-3.423-.387-4.741-1.402-4.741-3.218 0-1.916 1.928-3.36 6.111-3.36 4.541 0 6.283 1.788 6.283 3.647h-2.853c0-.944-1.07-1.488-3.598-1.488-2.599 0-3.155.357-3.155 1.058 0 .73.57.958 3.328 1.287.629.087 2.028.244 2.413.286 2.913.3 4.226 1.358 4.226 3.23-.004 2.232-2.003 3.549-6.243 3.549Zm14.364-.015c-3.726 0-6.153-1.473-6.153-4.571v-6.812h2.726v6.85c0 1.416 1.157 2.359 3.541 2.359 2.156 0 3.442-.886 3.442-2.36v-6.849h2.698v7.066c0 2.816-2.256 4.317-6.254 4.317Zm21.032-.157v-7.493l-3.499 7.493h-2.655l-3.398-7.493v7.493h-2.568V14.172h3.479l3.855 8.552 3.94-8.552h3.424v11.226h-2.578Z"/></svg>