<svg xmlns="http://www.w3.org/2000/svg" width="87" height="40" fill="none"><path fill="#111" d="M2.248 23.927h2.463v12.08H2.248v-12.08Zm3.892 7.941a4.385 4.385 0 1 1 4.385 4.376 4.334 4.334 0 0 1-4.385-4.376Zm6.29 0a1.904 1.904 0 0 0-3.269-1.28 1.905 1.905 0 0 0 1.364 3.234 1.854 1.854 0 0 0 1.905-1.954Z"/><path fill="#111" d="M24.813 27.73v7.866c0 2.783-2.176 3.958-4.377 3.958a4.23 4.23 0 0 1-3.917-2.004l2.119-1.223a1.889 1.889 0 0 0 1.847 1.042 1.64 1.64 0 0 0 1.905-1.773v-.764a2.921 2.921 0 0 1-2.414 1.076 4.204 4.204 0 1 1 0-8.409 2.948 2.948 0 0 1 2.414 1.076v-.821l2.423-.025Zm-2.423 3.973a2.003 2.003 0 1 0-2.003 1.922 1.872 1.872 0 0 0 2.003-1.922Zm3.843.165a4.385 4.385 0 1 1 4.385 4.376 4.334 4.334 0 0 1-4.385-4.376Zm6.29 0a1.906 1.906 0 1 0-1.905 1.954 1.856 1.856 0 0 0 1.889-1.954h.016Zm3.622-6.356a1.494 1.494 0 1 1 1.494 1.495 1.503 1.503 0 0 1-1.495-1.495Zm.254 2.217h2.463v8.277H36.4V27.73Zm13.204 4.139a4.157 4.157 0 0 1-3.95 4.377 3.145 3.145 0 0 1-2.463-1.01v4.105h-2.464V27.73h2.464v.78a3.145 3.145 0 0 1 2.463-1.01 4.155 4.155 0 0 1 3.95 4.368Zm-2.464 0a1.971 1.971 0 1 0-2.02 2.02 1.889 1.889 0 0 0 2.004-2.02h.016Zm10.133 1.658c0 1.905-1.642 2.718-3.449 2.718a3.629 3.629 0 0 1-3.555-1.97l2.151-1.224a1.363 1.363 0 0 0 1.404.977c.6 0 .895-.189.895-.517 0-.911-4.105-.427-4.105-3.284 0-1.807 1.527-2.718 3.284-2.718a3.637 3.637 0 0 1 3.236 1.773l-2.16 1.133a1.224 1.224 0 0 0-1.117-.73c-.427 0-.69.164-.69.468.033.944 4.106.312 4.106 3.374Zm9.066-5.796v8.276h-2.464v-.772a2.832 2.832 0 0 1-2.365 1.01c-1.642 0-3.095-1.19-3.095-3.432V27.73h2.463v4.722a1.363 1.363 0 0 0 1.486 1.502c.904 0 1.536-.525 1.536-1.7V27.73h2.439Zm14.238 3.202v5.074h-2.464v-4.86c0-.822-.402-1.364-1.19-1.364-.788 0-1.298.583-1.298 1.56v4.664h-2.463v-4.86c0-.822-.394-1.364-1.19-1.364-.797 0-1.29.583-1.29 1.56v4.664h-2.463V27.73h2.463v.764a2.545 2.545 0 0 1 2.217-.994 2.463 2.463 0 0 1 2.168 1.092 2.727 2.727 0 0 1 2.398-1.092c1.872 0 3.112 1.363 3.112 3.433Zm2.102-3.252a1.84 1.84 0 1 0 0-3.679 1.84 1.84 0 0 0 0 3.679ZM30.125 17.662a8.614 8.614 0 1 0 0-17.227 8.614 8.614 0 0 0 0 17.227Zm19.256 0a8.614 8.614 0 1 0 0-17.227 8.614 8.614 0 0 0 0 17.227ZM19.484.435H2.264v17.219h17.22V.434Z"/></svg>