<svg xmlns="http://www.w3.org/2000/svg" width="159" height="40" fill="none"><path fill="#111" d="M3.921 37.1h34.2V2.9h-34.2v34.2ZM31.54 16.71h-7.227V9.482h7.227v7.226ZM10.503 9.482h7.23V23.29H31.54v7.226H10.503V9.483ZM60.393 2.9a17.1 17.1 0 1 0 17.1 17.1 17.12 17.12 0 0 0-17.1-17.1Zm0 27.617A10.517 10.517 0 1 1 70.908 20a10.533 10.533 0 0 1-10.517 10.517ZM138.683 2.9a17.101 17.101 0 1 0 17.1 17.1 17.12 17.12 0 0 0-17.099-17.1Zm0 27.617A10.517 10.517 0 1 1 149.2 20a10.532 10.532 0 0 1-10.516 10.517ZM99.537 2.9a17.1 17.1 0 1 0 17.1 17.1 17.117 17.117 0 0 0-17.1-17.1Zm0 27.617a10.518 10.518 0 1 1 9.984-13.808h-9.984v6.582h9.984a10.53 10.53 0 0 1-9.984 7.226Z"/></svg>