<svg xmlns="http://www.w3.org/2000/svg" width="151" height="36" fill="none"><path fill="#fff" d="M43.585 9.3a5.287 5.287 0 0 0-.254-.12c-1.301-.563-2.603-1.127-3.906-1.689-.238-.103-.482-.194-.726-.292-.023.073-.04.102-.04.13 0 .749.015 1.497-.002 2.245-.01.444.214 1.052-.091 1.288-.284.22-.867.038-1.316.068-.296.019-.373-.09-.37-.368.013-1.138-.047-2.279.03-3.412.04-.589-.183-.8-.668-1.012-4.3-1.878-8.59-3.777-12.879-5.676-1.395-.618-1.386-.614-2.756.002-6 2.699-12.025 5.342-18.07 7.94-.716.307-1.435.608-2.153.91-.213.09-.395.201-.383.467.01.252.218.32.4.404.085.04.177.062.265.094 2.88 1.065 5.76 2.132 8.644 3.192.29.106.394.265.39.584-.02 1.652-.02 3.304-.016 4.956.003 1.152.515 1.937 1.615 2.308.414.14.455.341.454.697-.008 3.85-.004 7.699-.003 11.548 0 .187.012.374.006.561-.008.254.09.358.36.341.452-.027.908-.047 1.358-.015.4.029.482-.119.481-.494-.013-3.943-.007-7.886-.008-11.829 0-.467-.03-.935-.011-1.402.022-.536.26-.745.797-.748.688-.005 1.375-.002 2.063-.007.771-.006.958.173.96.962.006 2.43.01 4.862.011 7.293 0 2.135-.006 4.27-.006 6.406 0 .174-.056.368.188.472.588.25 1.166.523 1.725.837.227.128.395.048.398-.242 0-.124-.008-.248-.012-.372-.122-.15-.075-.329-.075-.495-.002-4.203 0-8.407.002-12.61 0-.151-.04-.314.08-.446.006-.358.002-.716.02-1.073.027-.514.254-.732.762-.735.781-.004 1.562 0 2.343.004.631.003.823.2.823.845l-.002 9.584c0 1.714-.002 3.429.007 5.143.002.487.103.538.512.278a8.08 8.08 0 0 1 1.43-.69c.26-.1.344-.233.34-.51-.017-1.511-.013-3.023-.014-4.535-.004-3.054-.008-6.109-.008-9.163 0-.776.19-.957.974-.955l1.969.007c.727.005.888.174.887.923v10.473c.001.888.014 1.777.001 2.665-.005.322.106.436.433.422.483-.02.968-.004 1.452.012.201.007.28-.055.274-.262-.012-.358-.001-.717-.001-1.075.001-3.725.005-7.45 0-11.175 0-.307.05-.478.405-.596 1.127-.374 1.704-1.302 1.677-2.412-.04-1.651-.007-3.304.004-4.956 0-.156-.072-.362.152-.445.83-.308 1.662-.61 2.522-.926 0 .82-.003 1.582.002 2.344.002.191-.054.293-.249.382-.5.229-.811.857-.64 1.356.127.37.07.678.009 1.053-.253 1.55-.428 3.112-.6 4.674-.067.615.052.716.667.72 1.093.01 2.187.002 3.28.009.403.002.578-.192.537-.58-.06-.573-.1-1.15-.205-1.716-.223-1.201-.136-2.455-.602-3.616-.043-.105.052-.17.088-.251.285-.635.121-1.265-.459-1.63-.18-.113-.266-.215-.263-.433.016-.84.028-1.683.01-2.524-.007-.292.122-.422.363-.513.598-.226 1.193-.46 1.791-.686.934-.351 1.871-.693 2.802-1.051.192-.074.443-.12.44-.413-.003-.272-.22-.352-.415-.449ZM14.04 11.055c-.138-.31-.431-.296-.687-.199-.552.209-1.092.45-1.665.69-.106-.371-.073-.595.311-.784 1.8-.886 3.729-1.303 5.69-1.613a17.818 17.818 0 0 1 2.376-.21c.109-.08.236-.067.36-.071 2.235-.083 4.451.046 6.651.491 1.655.335 3.271.778 4.833 1.417.127.052.276.072.366.194.09.124.087.268.055.404-.032.138-.133.086-.22.05-1.187-.485-2.425-.797-3.664-1.109-.043-.005-.089-.02-.13-.033-2.453-.462-4.93-.44-7.41-.391-.277.005-.502.059-.558.367-.055.303.041.522.377.577 2.901-.192 5.76.109 8.58.775.958.227 1.865.617 2.767 1.008.254.11.401.546.288.778-.048.099-.112.09-.188.055-.997-.453-2.078-.655-3.103-1.025-2.313-.462-4.652-.613-7.007-.579-.405.007-.81.024-1.214.007-.367-.017-.537.199-.542.496-.006.298.17.529.523.53.561.001 1.122.004 1.682.006a23.29 23.29 0 0 1 3.545.128c1.37.145 2.697.466 4.02.832.71.197 1.375.501 2.057.767.376.146.213.455.2.715 0 .006-.022.018-.032.016-.014-.003-.026-.016-.04-.024-6.871-2.161-13.735-2.05-20.607.022-.1-.36.029-.596.457-.74.53-.18 1.032-.44 1.546-.663.373-.162.542-.45.395-.827-.153-.393-.5-.304-.798-.195-.525.19-1.04.407-1.574.618-.16-.464-.073-.772.438-.941.44-.146.857-.367 1.283-.56.155-.072.31-.149.454-.24.294-.184.307-.464.185-.74Zm18.431 7.45c-.027.181-.094.206-.24.162-2.635-.786-5.347-.62-8.043-.634-2.203-.01-4.405.002-6.608-.004-1.954-.005-3.899.08-5.793.621-.172.05-.268.043-.262-.17.007-.265.008-.53-.002-.795-.012-.284.226-.316.399-.385a20.107 20.107 0 0 1 3.949-1.128c2.018-.358 4.05-.546 6.104-.504 3.306.036 6.574.328 9.71 1.484.834.307.92.468.786 1.353Zm5.167 2.861c-.434.104-.551-.04-.51-.419.094-.848.149-1.702.23-2.552.012-.111-.064-.308.178-.303.203.004.204.158.218.294.1.927.207 1.853.29 2.78.037.421-.32.126-.406.2ZM20.43 8.927Z"/><path fill="#fff" d="M22.163 23.757c-.378-.016-.559.223-.57.591a16.91 16.91 0 0 0-.006.514v4.623h-.008c0 1.62-.002 3.238.001 4.857 0 .186.004.375.037.557.05.277.265.374.517.374.238-.001.427-.115.48-.362a2.2 2.2 0 0 0 .035-.464c.006-2.381.009-4.763.012-7.145.001-.98-.003-1.961.004-2.942.002-.353-.15-.588-.503-.603Zm-6.304 10.354c.354.003.574-.28.574-.744v-4.434h.006v-4.434c0-.468-.215-.737-.58-.737-.348 0-.555.256-.555.711-.002 2.972-.002 5.944 0 8.916 0 .436.226.719.555.722Zm12.969-5.156v-.047c.003-1.479.005-2.957.006-4.436 0-.546-.286-.796-.742-.657-.32.098-.358.349-.359.627-.003 1.681-.01 3.362-.01 5.043-.002 1.245.003 2.49.006 3.736 0 .093.002.186.004.28.005.346.173.59.523.586.353-.005.562-.215.56-.603-.006-1.51-.002-3.02-.002-4.53h.014Zm-8.799-6.813a23807.3 23807.3 0 0 0 0 12.817c0 .123-.02.25.031.368.008-1.9.02-3.8.02-5.7 0-2.617-.008-5.234-.014-7.851-.061.117-.037.244-.037.366Z"/><path fill="#fff" d="M19.987 22.222c-.003 4.204-.004 8.407-.002 12.61 0 .167-.047.345.075.495-.052-.119-.031-.245-.032-.368V22.142c0-.122-.023-.25.038-.366-.12.132-.079.295-.079.446Zm8.46-11.907-.13-.033c.041.013.087.028.13.033Zm9.308 8.071c-.014-.136-.015-.29-.218-.294-.242-.005-.166.192-.177.303-.082.85-.137 1.704-.23 2.553-.042.379.075.522.51.418.085-.074.442.221.405-.199-.083-.928-.19-1.854-.29-2.78ZM51.517 27V9.545h11.761v3.043h-8.07v4.16h7.465v3.042h-7.466v4.167h8.105V27H51.517Zm20.163 0h-6.188V9.545h6.239c1.756 0 3.267.35 4.534 1.049a7.072 7.072 0 0 1 2.923 2.991c.688 1.301 1.032 2.858 1.032 4.67 0 1.819-.344 3.381-1.032 4.688a7.087 7.087 0 0 1-2.94 3.009C74.975 26.65 73.453 27 71.68 27Zm-2.497-3.162h2.343c1.091 0 2.009-.193 2.753-.58.75-.392 1.313-.997 1.688-1.815.38-.824.57-1.886.57-3.187 0-1.29-.19-2.344-.57-3.162-.375-.818-.935-1.42-1.68-1.807-.744-.386-1.661-.58-2.752-.58h-2.352v11.131ZM93.014 9.545h3.69v11.336c0 1.272-.303 2.386-.911 3.34-.602.955-1.446 1.7-2.531 2.233-1.085.529-2.35.793-3.793.793-1.449 0-2.716-.264-3.801-.793-1.085-.534-1.929-1.278-2.531-2.232-.603-.955-.904-2.069-.904-3.341V9.545h3.69v11.02c0 .665.145 1.256.435 1.773.296.517.71.923 1.245 1.219.534.295 1.156.443 1.866.443.716 0 1.338-.148 1.867-.443a3.11 3.11 0 0 0 1.235-1.219c.296-.517.444-1.108.444-1.773V9.545Zm9.161 0 4.218 13.262h.162l4.227-13.262h4.091L108.856 27h-4.755L98.075 9.545h4.1ZM116.254 27V9.545h11.762v3.043h-8.071v4.16h7.465v3.042h-7.465v4.167h8.105V27h-11.796Zm13.311-14.412V9.545H143.9v3.043h-5.344V27h-3.647V12.588h-5.344Zm17.209 14.634a1.99 1.99 0 0 1-1.448-.597 1.99 1.99 0 0 1-.597-1.449c0-.557.199-1.034.597-1.432a1.99 1.99 0 0 1 1.448-.596c.546 0 1.023.199 1.432.596.409.398.614.875.614 1.432 0 .375-.097.719-.29 1.031a2.205 2.205 0 0 1-.741.742 1.954 1.954 0 0 1-1.015.273Z"/></svg>