<svg xmlns="http://www.w3.org/2000/svg" width="403" height="620" fill="none"><path fill="#fff" d="M395.622 160.169c-1.44-.717-2.889-1.424-4.364-2.063-22.42-9.709-44.839-19.424-67.276-29.094-4.107-1.77-8.298-3.346-12.497-5.032-.396 1.261-.686 1.756-.686 2.25-.002 12.884.243 25.77-.038 38.646-.165 7.657 3.671 18.123-1.572 22.187-4.883 3.785-14.928.661-22.662 1.166-5.098.332-6.42-1.529-6.368-6.331.218-19.591-.816-39.248.509-58.752.688-10.149-3.145-13.792-11.503-17.444-74.042-32.34-147.925-65.04-221.804-97.75-24.03-10.638-23.864-10.578-47.46.033-103.342 46.483-207.104 92.011-311.217 136.736-12.329 5.296-24.7 10.488-37.072 15.683-3.668 1.541-6.805 3.468-6.603 8.054.193 4.327 3.766 5.499 6.911 6.955 1.455.671 3.037 1.063 4.547 1.62 49.616 18.338 99.215 36.718 148.867 54.959 5 1.835 6.795 4.57 6.727 10.061-.36 28.447-.335 56.899-.278 85.351.041 19.846 8.859 33.367 27.801 39.755 7.143 2.41 7.839 5.876 7.827 12.002-.138 66.296-.07 132.59-.048 198.886 0 3.22.201 6.444.103 9.66-.135 4.378 1.532 6.156 6.202 5.876 7.779-.467 15.634-.816 23.388-.262 6.896.492 8.301-2.05 8.278-8.511-.22-67.904-.115-135.809-.13-203.713 0-8.052-.528-16.116-.2-24.147.38-9.243 4.479-12.829 13.738-12.891 11.838-.083 23.677-.023 35.515-.12 13.285-.107 16.498 2.977 16.533 16.567.108 41.87.19 83.74.2 125.608.01 36.77-.115 73.541-.102 110.314 0 3.007-.98 6.353 3.235 8.141 10.133 4.303 20.085 8.995 29.7 14.417 3.906 2.203 6.8.819 6.853-4.168.023-2.135-.125-4.273-.197-6.411-2.106-2.582-1.297-5.661-1.297-8.525-.03-72.39-.013-144.78.037-217.17 0-2.609-.698-5.414 1.365-7.689.107-6.158.042-12.327.36-18.475.458-8.846 4.374-12.601 13.123-12.649 13.45-.07 26.904 0 40.357.06 10.867.047 14.172 3.449 14.17 14.547-.008 55.023-.04 110.044-.04 165.068 0 29.523-.04 59.049.114 88.572.046 8.378 1.778 9.257 8.831 4.79 7.765-4.918 16.113-8.626 24.623-11.88 4.49-1.716 5.917-4.021 5.862-8.79-.295-26.033-.23-52.067-.258-78.102-.058-52.606-.12-105.212-.12-157.818 0-13.363 3.265-16.464 16.771-16.432 11.3.027 22.602.06 33.902.122 12.517.07 15.291 2.997 15.288 15.891-.01 60.123-.007 120.246.005 180.366.003 15.299.226 30.6.003 45.896-.08 5.544 1.82 7.517 7.449 7.277 8.32-.355 16.681-.08 25.013.2 3.468.117 4.828-.944 4.713-4.513-.201-6.166-.015-12.344-.013-18.518.025-64.148.083-128.297.008-192.445-.005-5.295.841-8.239 6.973-10.274 19.405-6.438 29.34-22.424 28.877-41.543-.691-28.432-.11-56.896.065-85.346.017-2.692-1.242-6.241 2.619-7.672 14.297-5.294 28.621-10.516 43.439-15.95 0 14.127-.052 27.251.038 40.374.022 3.292-.927 5.04-4.292 6.581-8.606 3.935-13.966 14.759-11.019 23.362 2.183 6.378 1.199 11.675.145 18.12-4.357 26.687-7.359 53.608-10.311 80.501-1.164 10.599.884 12.332 11.473 12.417 18.831.15 37.665.023 56.497.137 6.935.043 9.945-3.311 9.241-9.991-1.039-9.865-1.725-19.809-3.53-29.541-3.838-20.7-2.346-42.282-10.378-62.276-.727-1.808.903-2.929 1.532-4.332 4.892-10.931 2.081-21.777-7.907-28.055-3.118-1.961-4.595-3.716-4.527-7.467.268-14.487.466-28.987.158-43.471-.108-5.025 2.11-7.27 6.257-8.836 10.301-3.89 20.546-7.931 30.852-11.812 16.075-6.056 32.215-11.947 48.249-18.111 3.313-1.273 7.632-2.052 7.577-7.102-.05-4.69-3.783-6.061-7.146-7.737l-.005.003Zm-508.803 30.215c-2.374-5.347-7.426-5.087-11.838-3.421-9.512 3.591-18.807 7.751-28.669 11.879-1.823-6.39-1.262-10.244 5.355-13.498 31.011-15.251 64.214-22.443 97.981-27.772 13.548-2.138 27.204-3.307 40.926-3.616 1.875-1.371 4.073-1.157 6.204-1.234 38.497-1.419 76.663.802 114.549 8.463 28.499 5.764 56.334 13.391 83.228 24.399 2.196.899 4.76 1.241 6.305 3.352 1.552 2.125 1.507 4.607.951 6.95-.561 2.372-2.288 1.475-3.803.856-20.429-8.343-41.757-13.725-63.087-19.092-.744-.092-1.533-.347-2.256-.567-42.233-7.954-84.9-7.594-127.604-6.748-4.777.095-8.638 1.024-9.602 6.334-.947 5.214.706 8.978 6.49 9.937 49.959-3.307 99.185 1.873 147.765 13.35 16.49 3.896 32.117 10.619 47.653 17.354 4.367 1.893 6.913 9.405 4.955 13.406-.829 1.69-1.925 1.528-3.23.936-17.179-7.791-35.787-11.28-53.437-17.651-39.844-7.946-80.131-10.556-120.683-9.962-6.974.103-13.96.412-20.915.105-6.31-.28-9.244 3.432-9.334 8.541-.09 5.144 2.922 9.11 9.02 9.128 9.656.03 19.308.077 28.963.117 20.414-.964 40.715.058 61.051 2.2 23.602 2.488 46.452 8.029 69.227 14.33 12.231 3.384 23.689 8.626 35.432 13.198 6.467 2.52 3.668 7.837 3.46 12.327-.005.105-.393.3-.566.267-.245-.047-.453-.27-.678-.417-118.352-37.215-236.564-35.292-354.899.38-1.735-6.184.488-10.257 7.857-12.747 9.122-3.084 17.77-7.559 26.631-11.415 6.42-2.792 9.335-7.759 6.808-14.24-2.636-6.762-8.613-5.236-13.753-3.361-9.039 3.294-17.923 7.012-27.105 10.646-2.764-7.986-1.257-13.286 7.534-16.203 7.6-2.519 14.776-6.328 22.097-9.659 2.679-1.219 5.333-2.55 7.825-4.111 5.06-3.169 5.293-8.004 3.189-12.739l.003-.002Zm317.426 128.315c-.468 3.116-1.62 3.541-4.131 2.792-45.39-13.541-92.09-10.696-138.529-10.916-37.933-.18-75.866.022-113.8-.073-33.661-.084-67.143 1.374-99.773 10.696-2.967.847-4.617.73-4.517-2.934.125-4.557.148-9.13-.035-13.685-.198-4.895 3.893-5.449 6.87-6.638 22.002-8.781 44.684-15.286 68.02-19.424 34.759-6.164 69.765-9.4 105.122-8.676 56.942.607 113.224 5.647 167.227 25.55 14.362 5.294 15.84 8.059 13.543 23.305l.003.003Zm88.984 49.269c-7.489 1.791-9.499-.684-8.781-7.21 1.61-14.619 2.552-29.311 3.969-43.952.188-1.926-1.112-5.312 3.045-5.23 3.495.07 3.513 2.725 3.766 5.072 1.717 15.958 3.558 31.906 4.98 47.891.646 7.238-5.509 2.148-6.981 3.432l.002-.003Z"/><path fill="#fff" d="M26.687 409.147c-6.498-.275-9.62 3.843-9.813 10.176-.09 2.947-.105 5.896-.105 8.846-.007 26.541-.005 53.085-.005 79.627h-.135c0 27.882-.02 55.765.025 83.647.005 3.204.07 6.461.638 9.598.864 4.769 4.565 6.443 8.904 6.428 4.099-.015 7.344-1.971 8.273-6.224.566-2.584.596-5.319.6-7.986.093-41.019.146-82.039.198-123.058.023-16.889-.052-33.779.068-50.668.045-6.078-2.581-10.129-8.65-10.386h.002Zm114.802 89.513v-.804c.035-25.465.077-50.93.102-76.395.008-9.395-4.935-13.711-12.782-11.311-5.521 1.689-6.174 6.001-6.184 10.799-.053 28.949-.168 57.9-.191 86.849-.017 21.444.073 42.889.12 64.333.003 1.609.035 3.217.061 4.825.092 5.971 2.989 10.177 9.018 10.094 6.075-.085 9.67-3.701 9.643-10.388-.1-26-.04-52.002-.04-78.002h.253Zm-6.572-321.01c-.749-.19-1.498-.377-2.25-.567.722.22 1.508.475 2.25.567ZM295.23 316.648c-.253-2.347-.271-5.002-3.766-5.072-4.156-.082-2.859 3.304-3.045 5.23-1.419 14.642-2.361 29.333-3.968 43.953-.719 6.528 1.292 9 8.781 7.209 1.475-1.283 7.627 3.806 6.981-3.431-1.425-15.985-3.263-31.933-4.981-47.891l-.002.002Z"/></svg>