<svg xmlns="http://www.w3.org/2000/svg" width="103" height="50" fill="none"><g fill="#641320" clip-path="url(#a)"><path d="M92.53 3.47c.955 1.428 1.873 3.19 1.421 5.08-1.556-.892-2.809-2.347-3.802-3.783-1-1.447-2.038-2.984-2.394-4.767 1.964.503 3.722 1.897 4.774 3.47ZM8.117 8.546c-.45-1.889.47-3.65 1.427-5.078C10.598 1.896 12.357.503 14.32.002c-.357 1.782-1.397 3.32-2.398 4.764-.994 1.436-2.248 2.89-3.806 3.78Z"/><path d="M6.746 12.17c.352-1.496.344-3.134.01-4.537-.295-1.233-.722-2.976-2.13-3.564C3.6 5.71 3.19 7.947 3.785 9.623c.432 1.212 1.208 2.814 2.817 3.062 1.476.34 2.97-.447 4.148-1.097 1.311-.723 2.595-1.873 3.376-3.24-1.432-.723-3.062-.137-4.288.425-1.322.606-2.536 1.905-3.093 3.396Zm28.653 1.436v-7.51h-2.564v2.736h-3.846V6.096h-2.564v7.51h2.564V10.88h3.846v2.726h2.564Zm8.501-7.51h2.833l-4.018 5.033v2.477H40.14v-2.468l-3.97-5.042h2.918L41.46 9.1l2.44-3.004Z"/><path fill-rule="evenodd" d="M55.662 6.737c.507.402.794 1.081.794 2.067 0 .803-.2 1.406-.584 1.827-.516.593-1.367.861-2.477.87-.345.01-3.291 0-3.291 0v2.105H47.53v-7.51h5.826c1.034 0 1.818.21 2.306.641Zm-1.904 2.65c.077-.134.115-.306.115-.545 0-.249-.048-.46-.134-.574-.162-.24-.469-.354-.966-.354h-2.688v1.837h2.669c.535 0 .851-.124 1.004-.364Z" clip-rule="evenodd"/><path d="M65.392 11.74v1.866H57.48v-7.51h7.846v1.875h-5.32v.967h5.166v1.827h-5.166v.976h5.386Z"/><path fill-rule="evenodd" d="M74.998 6.862c.345.354.507.842.507 1.52 0 .584-.143 1.082-.383 1.417-.267.363-.679.67-1.186.746l2.268 3.061h-2.851l-1.866-2.65h-2.324v2.65h-2.555v-7.51h5.98c1.186 0 1.961.287 2.41.766Zm-2.066 2.152a.803.803 0 0 0 .086-.392c0-.143-.019-.297-.086-.392-.134-.249-.401-.316-.804-.316h-2.956v1.368h3.004c.411 0 .66-.076.756-.268Z" clip-rule="evenodd"/><path d="M64.022 23.026c0-1.717-1.09-2.62-3.634-2.895a85.78 85.78 0 0 0-2.394-.238c-1.967-.213-2.556-.326-2.556-.827 0-.451.464-.664 2.23-.664 1.254 0 1.956.238 2.231.601.138.176.188.314.2.451h3.61a3.427 3.427 0 0 0-.364-1.102c-.651-1.253-2.218-2.256-5.589-2.256-3.797 0-5.877 1.341-5.877 3.095 0 1.692 1.178 2.682 4.361 2.97.36.03 1.133.104 1.766.164l.039.003.007.001h.003l.34.032c1.667.176 2.118.289 2.118.815 0 .489-.438.752-2.28.752-1.429 0-2.268-.213-2.57-.577a1.231 1.231 0 0 1-.237-.526h-3.61c.038.25.101.652.239.978.614 1.378 2.218 2.43 5.94 2.43 3.997 0 6.027-1.127 6.027-3.207Z"/><path fill-rule="evenodd" d="M38.438 25.08c.376-.438.564-1.102.564-1.779 0-.576-.15-1.127-.463-1.49-.376-.49-1.04-.84-1.742-.928.476-.063.927-.313 1.19-.639.326-.389.476-.915.476-1.554s-.188-1.203-.614-1.629c-.476-.488-1.34-.814-2.694-.814H26.66v9.836h8.733c1.391 0 2.469-.3 3.045-1.002Zm-3.458-5.8a.846.846 0 0 1-.2.575c-.176.163-.502.226-.928.226h-3.91v-1.604h3.822c.477 0 .802.063.978.226.163.137.238.338.238.576Zm.376 4.31c-.2.188-.552.263-1.14.263h-4.273V22.21h4.31c.551 0 .877.075 1.065.238.15.15.213.339.213.59 0 .237-.05.425-.175.55Z" clip-rule="evenodd"/><path d="M50.801 23.64v2.443H40.438v-9.836h10.275v2.456h-6.967v1.265h6.767v2.394h-6.767v1.278h7.055Zm25.414-4.925v-2.468h-11.74v2.468h4.147v7.368h3.433v-7.368h4.16Zm-.297 16.073h-.553l-.04-.532c-.168.269-.525.592-1.278.592-1.273 0-1.865-.767-1.865-2.727 0-1.515.376-2.733 1.931-2.733 1.348 0 1.758.882 1.778 1.831h-.673c-.02-.62-.297-1.192-1.091-1.192-.956 0-1.233.573-1.233 2.114 0 1.61.345 2.115 1.247 2.115.632 0 1.002-.35 1.124-.768v-1.003h-1.36v-.613h2.006v1.549c0 .462.004.956.005 1.205l.002.118v.044Z"/><path fill-rule="evenodd" d="M26.787 33.447h1.885l.39 1.34h.714l-1.562-5.332h-.868l-1.67 5.332h.707l.404-1.34Zm1.716-.599h-1.535s.667-2.154.68-2.201l.115-.512.074.353.034.159c.006.033.633 2.201.633 2.201Z" clip-rule="evenodd"/><path d="M34.886 29.455h.647l-1.26 5.332h-.8s-.896-4.147-.896-4.322c-.007.175-.922 4.322-.922 4.322h-.802l-1.259-5.332h.727s.977 4.221.977 4.39c0-.169.895-4.39.895-4.39h.802s.895 4.228.895 4.39c0-.162.996-4.39.996-4.39Z"/><path fill-rule="evenodd" d="M38.298 33.447h-1.886l-.403 1.34h-.707l1.67-5.332h.868l1.562 5.332h-.714l-.39-1.34Zm-1.704-.599h1.535s-.626-2.168-.632-2.201l-.051-.243-.057-.27-.115.513c-.013.047-.68 2.201-.68 2.201Zm5.403-3.393c.821 0 1.266.384 1.266 1.501 0 .95-.357 1.266-.728 1.374l1.024 2.457h-.74l-.95-2.322h-1.293v2.322h-.673v-5.332h2.094Zm-.101 2.404c.532 0 .66-.277.66-.883 0-.686-.202-.895-.694-.895h-1.28v1.777h1.314Zm5.849.175c0 1.259-.094 1.77-.363 2.154-.27.37-.694.6-1.38.6H44.17v-5.333h1.784c.674 0 1.199.202 1.441.566.27.39.35.875.35 2.013Zm-1.885 2.12c.41 0 .754-.107.93-.343.188-.256.242-.774.242-1.777 0-.842-.047-1.293-.243-1.583-.181-.249-.532-.357-.942-.357h-.997v4.06h1.01Z" clip-rule="evenodd"/><path d="M54.849 29.455h.646l-1.259 5.332h-.801s-.896-4.147-.896-4.322c-.007.175-.922 4.322-.922 4.322h-.801l-1.26-5.332h.728s.976 4.221.976 4.39c0-.169.895-4.39.895-4.39h.802s.895 4.228.895 4.39c0-.162.997-4.39.997-4.39Zm1.837 0v5.332h-.7v-5.332h.7Zm4.383 0v5.332h-.774l-1.987-4.134v4.134h-.653v-5.332h.815l1.94 4.073v-4.073h.659Zm4.366 0v5.332h-.775l-1.985-4.134v4.134h-.654v-5.332h.815l1.94 4.073v-4.073h.659Zm1.652 0v5.332h-.7v-5.332h.7Zm4.383 0v5.332h-.774l-1.986-4.134v4.134h-.653v-5.332h.815l1.94 4.073v-4.073h.659ZM34.367 45.297l-.772-2.374-.771 2.374h-2.497l2.02 1.468-.772 2.375 2.02-1.468 2.02 1.468-.771-2.375 2.02-1.468h-2.497Zm8.923.001-.788-2.375-.787 2.375h-2.548l2.061 1.467-.787 2.375 2.061-1.468 2.061 1.468-.787-2.375 2.061-1.467H43.29Zm8.837 0-.788-2.375-.787 2.375h-2.548l2.062 1.467-.788 2.375 2.061-1.468 2.062 1.468-.788-2.375 2.062-1.467h-2.548Zm8.837 0-.788-2.375-.787 2.375H56.84l2.061 1.467-.787 2.375 2.061-1.468 2.061 1.468-.787-2.375 2.061-1.467h-2.547Zm8.891 0-.771-2.375-.772 2.375h-2.497l2.02 1.467-.771 2.375 2.02-1.468 2.02 1.468-.772-2.375 2.02-1.467h-2.497ZM2.2 16.206c.726 1.108 1.85 2.495 3.488 2.455 1.49.075 2.777-.942 3.79-1.79 1.092-.914 2.077-2.25 2.493-3.695-1.524-.444-2.982.378-4.07 1.152-1.136.81-2.01 2.29-2.198 3.81a9.855 9.855 0 0 0-1.09-4.363c-.608-1.159-1.455-2.724-2.965-3.037-.595 1.802-.405 4.007.552 5.468Z"/><path d="M6.173 24.627c-1.52.255-3.004-.677-3.967-1.772C.966 21.444.228 19.552.38 17.657c1.562.04 2.745 1.39 3.619 2.41a10.131 10.131 0 0 1 2.083 4.04c-.163-1.488.337-3.094 1.263-4.086.895-.958 2.148-2.002 3.708-1.835-.034 1.508-.79 2.945-1.57 4.021-.726 1.003-1.846 2.243-3.31 2.42Z"/><path d="M3.364 29.638c1.4.912 3.099 1.814 4.883 1.131 1.465-.518 2.395-1.992 2.968-3.345.607-1.433 1.012-3.086.731-4.655-1.609.143-2.943 1.294-3.652 2.7-.74 1.469-.882 3.217-.313 4.758-.841-1.585-2.07-2.867-3.373-4.052-1.185-1.077-2.89-2.211-4.608-1.998.327 2.124 1.623 4.328 3.364 5.461Z"/><path d="M11.854 36.51c1.378-.823 1.933-2.556 2.16-4.041.243-1.602.233-3.369-.432-4.888-1.599.446-2.696 1.885-3.059 3.461a6.322 6.322 0 0 0 .872 4.857c-1.238-1.42-2.884-2.593-4.461-3.415-1.524-.794-3.393-1.752-5.223-1.173.883 2.153 2.77 4.158 4.862 4.987 1.62.642 3.59 1.277 5.281.213Z"/><path d="M18.387 37.068c.202 1.546.196 3.507-1.004 4.697-1.5 1.535-3.822 1.24-5.612.901-2.404-.453-5.11-2.093-6.56-4.276 1.771-.975 3.937-.351 5.69.154l.1.029c1.958.563 4.044 1.47 5.789 2.709-1.393-1.258-2.407-3.104-2.457-4.965-.044-1.665.678-3.445 2.233-4.239 1.085 1.425 1.594 3.254 1.82 4.99Z"/><path d="M25.353 46.143c.884-1.683.008-3.658-.69-5.117-.825-1.726-1.952-3.485-3.566-4.748-1.549 1.336-1.402 3.246-.941 4.906.548 1.974 2.446 3.657 4.413 4.616a25.353 25.353 0 0 0-7.13-1.51l-.24-.015c-1.901-.124-4.376-.285-5.89 1.106 2.29 1.947 5.543 3.07 8.41 3.012 1.921-.04 4.557-.267 5.634-2.25Zm69.966-33.968c-.555-1.492-1.77-2.794-3.09-3.4-1.227-.563-2.856-1.15-4.287-.43.779 1.369 2.061 2.52 3.372 3.243 1.178.651 2.67 1.44 4.146 1.101 1.61-.246 2.388-1.848 2.82-3.06.599-1.675.19-3.912-.832-5.555-1.41.587-1.84 2.33-2.134 3.563-.336 1.403-.345 3.041.005 4.538Z"/><path d="M94.162 14.331c1.134.81 2.005 2.289 2.193 3.808a9.864 9.864 0 0 1 1.095-4.36c.608-1.157 1.457-2.722 2.967-3.034.593 1.803.402 4.008-.558 5.468-.725 1.105-1.849 2.49-3.483 2.453-1.492.076-2.78-.943-3.795-1.793-1.09-.915-2.074-2.252-2.488-3.697 1.523-.443 2.981.38 4.069 1.155Z"/><path d="M95.971 24.116c.166-1.489-.331-3.098-1.26-4.092-.892-.959-2.145-2.004-3.704-1.837.031 1.508.786 2.945 1.565 4.022.726 1.003 1.843 2.243 3.306 2.422 1.521.257 3.006-.674 3.971-1.77 1.241-1.409 1.98-3.3 1.833-5.195-1.563.038-2.747 1.387-3.623 2.407a10.127 10.127 0 0 0-2.088 4.043Z"/><path d="M93.757 25.471c.74 1.47.88 3.22.31 4.76.842-1.585 2.073-2.867 3.377-4.05 1.184-1.076 2.891-2.21 4.609-1.995-.328 2.124-1.627 4.326-3.369 5.459-1.4.909-3.096 1.81-4.879 1.13-1.466-.518-2.398-1.995-2.97-3.35-.605-1.434-1.009-3.087-.726-4.655 1.608.144 2.942 1.296 3.648 2.701Z"/><path d="M90.649 35.897a6.328 6.328 0 0 0 .874-4.854c-.36-1.576-1.457-3.016-3.056-3.463-.666 1.518-.678 3.285-.436 4.887.226 1.482.777 3.212 2.147 4.039 1.692 1.073 3.667.438 5.29-.204 2.092-.828 3.982-2.831 4.866-4.984-1.83-.58-3.7.377-5.224 1.17-1.576.82-3.223 1.99-4.461 3.409Z"/><path d="M83.654 37.063c-.204 1.546-.2 3.507 1 4.698 1.497 1.537 3.82 1.242 5.61.905 2.405-.452 5.112-2.09 6.564-4.271-1.77-.976-3.937-.354-5.69.15l-.102.028c-1.957.561-4.043 1.466-5.788 2.704 1.393-1.257 2.408-3.102 2.459-4.962.047-1.664-.674-3.445-2.228-4.24-1.087 1.424-1.596 3.252-1.825 4.988Z"/><path d="M82.31 48.387c-1.92-.04-4.557-.27-5.631-2.254l-.015-.027c-.858-1.678.014-3.639.709-5.09.827-1.725 1.956-3.483 3.57-4.744 1.549 1.336 1.399 3.246.937 4.906-.55 1.974-2.45 3.655-4.417 4.613a25.361 25.361 0 0 1 7.13-1.504l.242-.016c1.9-.122 4.375-.281 5.888 1.11-2.292 1.946-5.545 3.067-8.413 3.006Z"/></g><defs><clipPath id="a"><path fill="#fff" d="M0 0h102.326v50H0z"/></clipPath></defs></svg>