<svg xmlns="http://www.w3.org/2000/svg" width="62" height="50" fill="none"><g fill="#111" clip-path="url(#a)" opacity=".3"><path d="M20.455 17.185V15.21h-1.098v1.876c0 .336-.311.562-.836.562-.549 0-.848-.218-.848-.566V15.21h-1.11v1.872c0 .975.799 1.39 1.913 1.39 1.192 0 1.979-.419 1.979-1.287Zm3.698 1.241v-.856h-1.959v-2.36h-1.11v3.216h3.069Zm3.3-2.409v-.807h-3.84v.807h1.357v2.41h1.122v-2.41h1.36Zm1.476 2.409V15.21h-1.127v3.216h1.127Zm5.169 0V15.21h-1.39l-.876 1.93-.836-1.93h-1.434v3.216h1.045V16.69l.754 1.737h.934l.762-1.737v1.737h1.04Zm1.74-.594h1.737l.283.594h1.184l-1.623-3.216h-1.323l-1.717 3.216h1.16l.299-.594Zm1.389-.721h-1.029l.406-.774.123-.295.115.29.385.779Zm5.297-1.094v-.807h-3.839v.807h1.356v2.41h1.123v-2.41h1.36Zm3.734 2.409v-.799h-2.306v-.418h2.211v-.782h-2.211v-.414h2.277v-.803H42.87v3.216h3.388Zm-21.322 1.71h-1.061s-.693 2.024-.693 2.073c0-.05-.647-2.073-.647-2.073h-1.151s-.643 2.024-.643 2.073c0-.05-.697-2.073-.697-2.073h-1.192l1.204 3.216h1.2s.648-1.922.652-1.975c.004.053.648 1.975.648 1.975h1.204l1.176-3.216Zm1.452 3.216v-3.216H25.26v3.216h1.127Zm4.382 0v-3.216h-1.048v1.75l-1.545-1.75h-1.155v3.216h1.057v-1.79l1.593 1.79h1.098Zm4.39 0v-3.216h-1.05v1.75l-1.544-1.75h-1.155v3.216h1.057v-1.79l1.593 1.79h1.099Zm4.028 0v-.799h-2.306v-.418h2.212v-.782h-2.212v-.414h2.277v-.803H35.8v3.216h3.39Zm4.332-2.237c0-.29-.07-.5-.218-.651-.193-.205-.524-.328-1.033-.328h-2.56v3.216h1.094v-1.135h.995l.8 1.135h1.22l-.97-1.311a.785.785 0 0 0 .507-.32c.103-.143.164-.356.164-.606Zm-1.066.102a.342.342 0 0 1-.037.168c-.041.082-.148.115-.324.115h-1.286v-.586h1.265c.173 0 .288.029.345.135.029.041.037.107.037.168Zm-21.537 5.299v-1.571h-.384v1.546c0 .365-.343.573-.838.573-.585 0-.873-.223-.873-.576v-1.543h-.386v1.53c0 .644.5.929 1.243.929.768 0 1.238-.303 1.238-.888Zm2.753.857v-.356h-1.674v-2.072h-.387v2.428h2.06Zm2.197-2.076v-.352h-2.58v.352h1.095v2.076h.39v-2.076h1.095Zm2.749.334c0-.173-.037-.3-.102-.402-.114-.17-.334-.284-.699-.284h-1.572v2.428h.38v-1.024h1.108l.678 1.024h.445l-.733-1.089a.536.536 0 0 0 .409-.263.774.774 0 0 0 .086-.39Zm-.383.031a.507.507 0 0 1-.044.207c-.05.09-.164.137-.35.14h-1.212v-.718h1.142c.232 0 .355.056.42.16a.47.47 0 0 1 .044.211Zm1.484 1.111h1.513l.31.6h.414l-1.231-2.428h-.455l-1.272 2.428h.406l.315-.6Zm1.352-.344h-1.185l.492-.93.108-.227.109.226.476.931Zm4.808.712a.668.668 0 0 0 .14-.44c0-.16-.047-.321-.143-.42a.717.717 0 0 0-.42-.186.376.376 0 0 0 .229-.142.637.637 0 0 0 .133-.405.565.565 0 0 0-.155-.415c-.114-.114-.31-.188-.582-.188h-1.633v2.428H35.2c.328 0 .557-.084.677-.232Zm-.46-1.516a.36.36 0 0 1-.093.26c-.06.065-.158.093-.263.093h-1.238v-.7h1.167c.142 0 .25.028.324.097a.342.342 0 0 1 .102.25Zm.123 1.28c-.077.087-.21.13-.405.13h-1.312v-.72h1.321c.18 0 .303.037.378.108a.322.322 0 0 1 .096.245c0 .099-.022.182-.078.238Zm3.285.468v-.356h-1.887v-.693h1.813v-.353h-1.813v-.674h1.866v-.352H36.56v2.428h2.264Zm3.022-.718c0-.396-.262-.6-.909-.674-.108-.016-.343-.04-.47-.056-.6-.071-.783-.151-.783-.359 0-.2.201-.315.807-.315.47 0 .712.093.833.26a.385.385 0 0 1 .062.145h.414a.858.858 0 0 0-.084-.25c-.166-.288-.51-.496-1.224-.496-.854-.003-1.207.307-1.207.69 0 .384.275.579.99.662.124.016.343.04.452.053.554.068.727.152.727.384 0 .213-.198.368-.833.368-.52 0-.798-.093-.91-.273a.397.397 0 0 1-.058-.179h-.408c.01.111.04.232.096.328.16.294.538.464 1.268.464.873 0 1.237-.282 1.237-.752Zm2.775-1.358v-.352h-2.58v.352h1.095v2.076h.39v-2.076h1.095ZM17.34 29.484c0-.248-.049-.415-.132-.542-.118-.182-.347-.278-.746-.278h-1.534v2.428h.383v-.791h1.136c.374-.004.63-.09.767-.288.086-.12.127-.294.127-.53Zm-.39 0c0 .123-.012.216-.052.278-.07.115-.216.186-.516.186h-1.07v-.938h1.082c.282 0 .427.065.504.192.037.056.053.158.053.282Zm3.19 1.609v-.356h-1.886v-.693h1.813v-.353h-1.813v-.674h1.865v-.353h-2.243v2.428h2.265Zm2.952-1.743c0-.173-.037-.3-.102-.401-.115-.17-.334-.285-.7-.285h-1.57v2.428h.38V30.07h1.107l.678 1.024h.445l-.733-1.09a.536.536 0 0 0 .408-.262.774.774 0 0 0 .087-.39Zm-.384.032a.508.508 0 0 1-.043.207c-.05.09-.164.136-.35.14h-1.212v-.718h1.141c.232 0 .356.055.421.16a.47.47 0 0 1 .043.21Zm3.252-.365v-.353H23.8v2.428h.384V30.06h1.696v-.362h-1.696v-.68h1.776Zm1.76-.397c-.516 0-.871.127-1.125.394-.214.207-.306.495-.306.857 0 .396.12.693.343.894.238.238.603.361 1.089.361.501 0 .89-.123 1.123-.374.201-.204.306-.495.306-.885 0-.377-.09-.665-.303-.869-.244-.254-.61-.377-1.126-.377Zm0 2.16c-.34 0-.58-.074-.763-.223-.186-.151-.276-.383-.276-.68 0-.279.078-.51.226-.65.17-.16.43-.257.81-.257.394 0 .638.093.82.254.155.136.223.377.223.65 0 .275-.07.51-.229.652-.182.17-.439.254-.81.254Zm4.333-1.43c0-.173-.037-.3-.102-.401-.115-.17-.334-.285-.7-.285H29.68v2.428h.38V30.07h1.108l.678 1.024h.445l-.733-1.09a.536.536 0 0 0 .408-.262.774.774 0 0 0 .087-.39Zm-.384.032a.506.506 0 0 1-.043.207c-.05.09-.164.136-.35.14h-1.212v-.718h1.141c.232 0 .356.055.42.16a.47.47 0 0 1 .044.21Zm4.084 1.711v-2.429h-.501l-1 1.998-.98-1.998h-.51v2.428h.368v-1.868l.915 1.869h.403l.937-1.87v1.87h.368Zm1.087-.601h1.512l.31.6h.414l-1.231-2.428h-.455l-1.271 2.428h.405l.316-.6Zm1.351-.343h-1.184l.492-.931.108-.226.108.226.476.93Zm3.672.944v-2.429h-.368v1.887l-1.608-1.887h-.437v2.428h.375v-1.899l1.62 1.9h.418Zm3.337-.907h-.402a.54.54 0 0 1-.133.306c-.167.195-.432.279-.84.279-.344 0-.713-.096-.89-.347-.092-.117-.15-.29-.15-.55 0-.232.04-.406.13-.523.148-.238.46-.362.9-.362.427 0 .696.117.838.281a.54.54 0 0 1 .142.31h.402a.936.936 0 0 0-.148-.433c-.198-.294-.563-.526-1.231-.526-.637 0-1.018.204-1.229.51-.136.176-.204.424-.204.74 0 .352.084.612.23.795.21.287.615.46 1.227.46.629 0 1.003-.188 1.189-.488a.956.956 0 0 0 .17-.452Zm2.77.907v-.356h-1.888v-.693h1.813v-.353h-1.813v-.674h1.865v-.353h-2.243v2.428h2.265Zm-28.293 2.412.462 1.424h1.497l-1.21.88.462 1.424-1.212-.88-1.21.88.462-1.424-1.211-.88h1.497l.463-1.424Zm5.341 0 .472 1.424h1.528l-1.236.88.472 1.424-1.236-.88-1.236.88.472-1.424-1.236-.88h1.528l.472-1.424Zm5.299 0 .472 1.424h1.528l-1.236.88.472 1.424-1.236-.88-1.236.88.472-1.424-1.236-.88h1.528l.472-1.424Zm5.299 0 .472 1.424h1.528l-1.236.88.472 1.424-1.236-.88-1.236.88.472-1.424-1.236-.88h1.528l.472-1.424Zm5.342 0 .462 1.424h1.497l-1.211.88.462 1.424-1.21-.88-1.212.88.463-1.424-1.212-.88h1.498l.463-1.424ZM22.272 9.48l.35 1.077h1.132l-.916.666.35 1.076-.916-.665-.916.665.35-1.076-.916-.666h1.132l.35-1.076Zm4.038 0 .357 1.076h1.155l-.934.665.357 1.077-.935-.666-.934.666.357-1.077-.935-.665h1.155l.357-1.077Zm4.007 0 .357 1.076h1.155l-.935.665.357 1.077-.934-.666-.935.666.357-1.077-.934-.665h1.155l.357-1.077Zm4.007 0 .357 1.076h1.155l-.935.665.357 1.077-.934-.666-.935.666.357-1.077-.934-.665h1.155l.357-1.077Zm4.038 0 .35 1.076h1.132l-.916.665.35 1.077-.916-.666-.916.666.35-1.077-.916-.665h1.132l.35-1.077Z"/><path fill-rule="evenodd" d="M6.147 28.86C4.603 19.2 9.109 9.643 18.129 5.54l.083.183C9.282 9.785 4.814 19.248 6.346 28.827c1.693 10.598 10.243 16.954 20.712 17.26l-.005.201C16.5 45.98 7.858 39.566 6.147 28.86Z" clip-rule="evenodd"/><path d="M16.173 8.005c-1.667.038-3.618.978-4.769 2.343.923.857 2.409.54 3.478.365a17.483 17.483 0 0 0 4.587-1.42c-.592-1.26-2.186-1.313-3.296-1.288Z"/><path d="M14.862 5.949a29.985 29.985 0 0 1-3.444 4.412c-1.072-1.006-.425-2.68.012-3.72.792-1.886 2.691-3.512 4.677-4.344.545 1.24-.639 2.708-1.245 3.651Zm-3.512 6.369c-1.561.555-2.903 2.116-3.576 3.684 1.122.522 2.398-.231 3.332-.733 1.281-.69 2.589-1.64 3.618-2.74-.93-.98-2.341-.579-3.374-.211Z"/><path d="M9.457 10.78a23.946 23.946 0 0 1-1.666 5.23c-1.314-.619-1.264-2.393-1.207-3.522.096-1.926 1.174-4.124 2.674-5.52.92.985.417 2.695.2 3.813Zm-1.111 7.106c-1.3 1.026-2.089 2.927-2.271 4.625 1.23.142 2.214-.978 2.945-1.746.997-1.046 1.94-2.358 2.539-3.73-1.173-.64-2.366.183-3.213.85Z"/><path d="M6.093 17.02a21.772 21.772 0 0 1 0 5.494c-1.43-.176-1.905-1.894-2.185-2.972-.484-1.86-.16-4.263.783-6.072 1.178.652 1.254 2.417 1.402 3.55Zm1.233 6.944c-1.03 1.507-1.391 3.87-.929 5.769 1.36-.322 2.035-1.862 2.576-2.95.72-1.444 1.327-3.13 1.545-4.785-1.475-.307-2.514.973-3.192 1.966Z"/><path d="M4.624 23.811a27.57 27.57 0 0 1 1.794 5.917c-1.56.335-2.683-1.302-3.335-2.388-1.16-1.933-1.5-4.613-1.074-6.926 1.428.286 2.126 2.266 2.615 3.397Zm3.422 6.712c-.553 1.829-.169 4.315.95 6.034 1.23-.8 1.4-2.562 1.574-3.825.23-1.667.338-3.514.052-5.242-1.572.2-2.207 1.811-2.576 3.033Z"/><path d="M5.313 31.306a32.4 32.4 0 0 1 3.702 5.24c-1.424.888-3.094-.326-4.107-1.185-1.798-1.524-2.965-4.114-3.241-6.557 1.495-.2 2.813 1.547 3.646 2.502Zm5.632 5.442c.119 2.129 1.505 4.362 3.35 5.634.891-1.22.332-3.09.028-4.395-.409-1.757-.975-3.586-1.817-5.21-1.468.776-1.639 2.569-1.56 3.97Z"/><path d="M8.463 38.546c2 1.11 3.993 2.422 5.846 3.817-1.11 1.461-3.328.879-4.704.409-2.423-.828-4.584-3.01-5.713-5.435 1.431-.738 3.39.553 4.571 1.209Zm8.177 3.402c1.199 2.19 3.933 3.619 6.508 3.963.278-1.592-1.445-3.169-2.384-4.2-1.336-1.468-2.729-2.991-4.29-4.26-1.17 1.358-.551 3.19.165 4.497Z"/><path d="M14.925 44.724c2.728.283 5.502.692 8.228 1.162-.26 2.009-3.448 2.333-4.895 2.452-2.967.243-6.268-.95-8.566-2.958 1.141-1.343 3.78-.807 5.233-.656Zm5.255-40.87c-1.832.522-3.976 1.513-5.035 3.343 1.922-.21 3.812-.894 5.659-1.415 2.07-.583 4.248-1.02 6.252-1.826-2.194-.878-4.78-.7-6.877-.102Z"/><path fill-rule="evenodd" d="M55.607 28.827c1.53-9.579-2.938-19.042-11.867-23.104l.083-.183c9.02 4.104 13.526 13.66 11.982 23.32-1.71 10.706-10.354 17.12-20.905 17.428l-.006-.2c10.47-.307 19.019-6.663 20.713-17.26Z" clip-rule="evenodd"/><path d="M45.78 8.005c1.666.038 3.617.978 4.768 2.343-.923.857-2.409.54-3.477.365a17.476 17.476 0 0 1-4.588-1.42c.592-1.26 2.186-1.313 3.296-1.288Z"/><path d="M47.09 5.949a30.024 30.024 0 0 0 3.444 4.412c1.072-1.006.425-2.68-.012-3.72-.792-1.886-2.691-3.512-4.677-4.344-.545 1.24.64 2.708 1.245 3.651Zm3.513 6.369c1.561.555 2.902 2.116 3.575 3.684-1.122.522-2.398-.231-3.331-.733-1.282-.69-2.59-1.64-3.618-2.74.93-.98 2.341-.579 3.374-.211Z"/><path d="M52.495 10.78a23.939 23.939 0 0 0 1.667 5.23c1.313-.619 1.263-2.393 1.206-3.522-.096-1.926-1.173-4.124-2.674-5.52-.919.985-.416 2.695-.199 3.813Zm1.111 7.106c1.3 1.026 2.089 2.927 2.271 4.625-1.23.142-2.213-.978-2.945-1.746-.996-1.046-1.94-2.358-2.538-3.73 1.173-.64 2.365.183 3.212.85Z"/><path d="M55.86 17.02a21.76 21.76 0 0 0 0 5.494c1.43-.176 1.905-1.894 2.185-2.972.484-1.86.16-4.263-.783-6.072-1.179.652-1.255 2.417-1.402 3.55Zm-1.233 6.944c1.029 1.507 1.39 3.87.928 5.769-1.36-.322-2.034-1.862-2.576-2.95-.719-1.444-1.327-3.13-1.545-4.785 1.475-.307 2.515.973 3.193 1.966Z"/><path d="M57.328 23.811a27.562 27.562 0 0 0-1.793 5.917c1.56.335 2.682-1.302 3.334-2.388 1.161-1.933 1.5-4.613 1.074-6.926-1.427.286-2.126 2.266-2.615 3.397Zm-3.421 6.712c.552 1.829.169 4.315-.95 6.034-1.23-.8-1.4-2.562-1.575-3.825-.229-1.667-.337-3.514-.052-5.242 1.573.2 2.208 1.811 2.577 3.033Z"/><path d="M56.64 31.306a32.459 32.459 0 0 0-3.703 5.24c1.424.888 3.095-.326 4.108-1.185 1.797-1.524 2.964-4.114 3.24-6.557-1.495-.2-2.813 1.547-3.646 2.502Zm-5.633 5.442c-.119 2.129-1.505 4.362-3.35 5.634-.891-1.22-.332-3.09-.029-4.395.41-1.757.976-3.586 1.818-5.21 1.468.776 1.639 2.569 1.56 3.97Z"/><path d="M53.49 38.546a51.244 51.244 0 0 0-5.847 3.817c1.11 1.461 3.329.879 4.704.409 2.424-.828 4.585-3.01 5.713-5.435-1.43-.738-3.39.553-4.57 1.209Zm-8.177 3.402c-1.2 2.19-3.934 3.619-6.51 3.963-.276-1.592 1.446-3.169 2.385-4.2 1.336-1.468 2.729-2.991 4.29-4.26 1.17 1.358.551 3.19-.165 4.497Z"/><path d="M47.027 44.724c-2.728.283-5.501.692-8.228 1.162.26 2.009 3.449 2.333 4.895 2.452 2.968.243 6.268-.95 8.566-2.958-1.14-1.343-3.78-.807-5.233-.656Zm-5.254-40.87c1.831.522 3.975 1.513 5.034 3.343-1.922-.21-3.811-.894-5.659-1.415-2.069-.583-4.248-1.02-6.251-1.826 2.194-.878 4.78-.7 6.876-.102Zm-9.606-.947-.94-2.073-.922 2.034-2.144-1.329 1.378 2.895h3.426l1.328-2.895-2.126 1.368Zm.777 1.977h-3.432v.507h3.431v-.507ZM31.473 44.06l.553 1.702h1.79l-1.448 1.052.552 1.702-1.447-1.052-1.448 1.052.553-1.702-1.447-1.052h1.789l.553-1.702Z"/></g><defs><clipPath id="a"><path fill="#fff" d="M0 0h61.667v50H0z"/></clipPath></defs></svg>