<svg xmlns="http://www.w3.org/2000/svg" width="100" height="50" fill="none"><g fill="#111" opacity=".3"><path d="M7.722 10.749c-.61-1.553-.345-3.338.217-4.84.592-1.58 1.623-3.155 3.164-3.985.076 1.664-.432 3.31-.988 4.792-.5 1.334-1.113 2.756-2.125 3.859a30.32 30.32 0 0 0-.359 2.5 6.336 6.336 0 0 1 1.559-2.319c.874-.827 2.174-1.465 3.395-1.088-.358 1.35-1.173 2.643-2.138 3.55-.76.714-1.762 1.63-2.943 1.665a29.294 29.294 0 0 0 .08 3.625c.166-.874.523-1.696 1.039-2.309.708-.841 1.759-1.87 3.1-1.698-.072 1.366-.617 2.765-1.376 3.816-.602.836-1.398 1.9-2.528 2.176.181 1.173.433 2.326.753 3.455.003-.864.194-1.713.572-2.393.534-.96 1.365-2.156 2.709-2.25.197 1.34-.07 2.805-.609 3.97-.43.93-1.003 2.118-2.049 2.61a28.645 28.645 0 0 0 1.554 3.533c-.209-.982-.2-2.016.047-2.947.341-1.284 1.188-2.632 2.547-3.023.48 1.417.414 2.998.135 4.438-.23 1.186-.68 2.579-1.693 3.349a28.736 28.736 0 0 0 2.191 3.066c-.428-.956-.641-2.001-.527-2.958.167-1.395.558-2.886 1.983-3.63.808 1.394.995 2.959 1.064 4.504.055 1.248-.125 2.789-.992 3.805a28.98 28.98 0 0 0 3.083 2.777c-.71-.911-1.207-1.98-1.312-3.037-.149-1.493-.076-3.136 1.249-4.232 1.133 1.183 1.81 2.927 2.14 4.44.294 1.34.6 2.924-.098 4.241a29.72 29.72 0 0 0 4.473 2.4c-1.111-.792-2.021-1.879-2.455-3-.568-1.471-.919-3.224.187-4.697 1.483.95 2.572 2.57 3.43 4.047.737 1.268 1.5 3.018 1.121 4.528a31.5 31.5 0 0 0 2.69.78l-.054.225a31.508 31.508 0 0 1-2.7-.782c-.616 1.818-2.631 2.418-4.261 2.683-2.322.378-5.087-.354-7.07-1.828 1.047-1.48 3.181-1.63 4.791-1.742l.021-.002a17.25 17.25 0 0 1 5.445.503 30.069 30.069 0 0 1-5.734-2.914l-.026.042c-.968 1.57-2.913 1.632-4.44 1.532-2.071-.135-4.463-1.394-5.847-3.135 1.302-1.142 3.225-.823 4.715-.575l.007.001c1.663.276 3.48.88 5.006 1.808a7.38 7.38 0 0 1-.426-.362 29.25 29.25 0 0 1-4.093-3.53 3.55 3.55 0 0 1-.043.043c-1.207 1.214-2.966.896-4.338.501-1.836-.529-3.74-2.124-4.652-3.956 1.414-.792 3.104-.14 4.42.377 1.443.567 2.97 1.474 4.144 2.63a6.848 6.848 0 0 1-.346-.478 28.972 28.972 0 0 1-2.936-3.942l-.043.027c-1.366.881-2.913.243-4.14-.384-1.662-.851-2.998-2.721-3.575-4.56 1.475-.473 2.932.455 4.065 1.189 1.239.803 2.494 1.948 3.355 3.262a6.055 6.055 0 0 1-.176-.397 28.879 28.879 0 0 1-2.1-4.532l-.03.01H8.95c-1.242.473-2.625-.261-3.526-1.066-1.253-1.118-2.136-2.838-2.343-4.518 1.294-.168 2.514.834 3.348 1.688.96.983 1.821 2.145 2.35 3.436a5.65 5.65 0 0 1-.099-.426 28.97 28.97 0 0 1-1.088-4.56l-.018.002-.007.001c-1.312.22-2.526-.779-3.251-1.747-1.017-1.36-1.542-3.24-1.41-4.945 1.307.091 2.303 1.335 2.948 2.341.748 1.165 1.368 2.483 1.639 3.863a5.561 5.561 0 0 1-.015-.331 29.45 29.45 0 0 1-.205-4.842h-.004c-1.335-.049-2.321-1.288-2.83-2.387-.729-1.573-.846-3.56-.36-5.236 1.272.357 1.981 1.816 2.4 2.939.482 1.295.82 2.707.822 4.111.07-1.178.21-2.365.422-3.557Zm26.286-2.907v5.625c0 2.474-2.24 3.664-5.636 3.664-3.174 0-5.45-1.178-5.45-3.956V7.842h3.162v5.333c0 .992.852 1.61 2.416 1.61 1.494 0 2.38-.641 2.38-1.598V7.842h3.128Zm10.532 6.722v2.439H35.8v-9.16h3.163v6.721h5.578Zm9.4-4.423V7.842H43.004v2.3h3.862v6.86h3.198v-6.86h3.874Z"/><path fill-rule="evenodd" d="M65.157 8.776c.42.432.619 1.027.619 1.855 0 .712-.175 1.319-.467 1.727-.327.444-.83.817-1.447.91l2.766 3.735H63.15l-2.276-3.233h-2.835v3.233h-3.116v-9.16h7.293c1.447 0 2.393.35 2.94.933Zm-2.52 2.626c.081-.14.104-.327.104-.479 0-.175-.023-.362-.105-.478-.163-.304-.49-.386-.98-.386H58.05v1.67h3.664c.502 0 .806-.094.922-.327Zm8.201 3.908h4.948l.804 1.693h3.373l-4.62-9.16h-3.77l-4.89 9.16h3.303l.852-1.692Zm3.955-2.053h-2.929l1.156-2.205.35-.84.327.828 1.096 2.217Zm-9.97 5.471c-1.958 0-2.987.928-2.987 2.292 0 1.538 1.08 2.32 2.987 2.32 2.1 0 2.982-.906 2.982-2.32 0-1.438-.996-2.292-2.982-2.292Zm0 3.474c-1.114 0-1.437-.458-1.437-1.165 0-.696.35-1.155 1.431-1.155 1.183 0 1.448.515 1.448 1.155 0 .678-.322 1.165-1.442 1.165Z" clip-rule="evenodd"/><path d="M58.934 23.271v-2.63H55.98v.956h1.578a.714.714 0 0 1-.141.3c-.164.192-.6.362-1.166.362-.588 0-.967-.153-1.17-.39-.137-.176-.216-.425-.216-.799 0-.39.08-.656.232-.831.22-.25.594-.357 1.143-.357.492 0 .832.113.99.255a.605.605 0 0 1 .198.283h1.465a1.516 1.516 0 0 0-.13-.532c-.35-.713-1.165-1.137-2.551-1.137-1.205 0-2.014.367-2.461.922-.295.38-.43.854-.43 1.386 0 .589.158 1.092.418 1.426.441.571 1.228.854 2.173.854.832 0 1.403-.198 1.765-.498l.04.43h1.216Zm-15.412-2.687c1.149.124 1.641.532 1.641 1.307 0 .939-.917 1.448-2.721 1.448-1.68 0-2.405-.475-2.682-1.097a1.913 1.913 0 0 1-.108-.442h1.63c.011.068.05.17.107.238.136.164.515.26 1.16.26.832 0 1.03-.119 1.03-.34 0-.237-.204-.288-.956-.367-.3-.028-.775-.074-.973-.09-1.437-.13-1.97-.578-1.97-1.341 0-.793.94-1.398 2.654-1.398 1.522 0 2.23.453 2.523 1.019.091.17.148.362.165.497h-1.63a.373.373 0 0 0-.09-.203c-.125-.164-.442-.272-1.008-.272-.797 0-1.006.096-1.006.3 0 .226.266.277 1.154.373.345.029.894.085 1.08.108Z"/><path fill-rule="evenodd" d="M27.28 19.21c.3.237.469.638.469 1.221 0 .475-.119.832-.345 1.08-.305.352-.81.51-1.465.516-.204.005-1.947 0-1.947 0v1.244h-1.521v-4.44h3.445c.611 0 1.075.123 1.363.378Zm-1.126 1.566a.638.638 0 0 0 .067-.322c0-.147-.028-.272-.079-.34-.096-.141-.277-.209-.571-.209h-1.59v1.086h1.578c.317 0 .504-.073.595-.215Zm7.162-1.493c.204.209.3.498.3.9 0 .344-.085.639-.226.837a1.085 1.085 0 0 1-.702.44l1.341 1.811h-1.686l-1.103-1.567h-1.375v1.567h-1.51v-4.44h3.536c.701 0 1.16.169 1.425.452Zm-1.222 1.273a.48.48 0 0 0 .051-.232.427.427 0 0 0-.05-.232c-.08-.147-.238-.187-.476-.187h-1.748v.809h1.776c.244 0 .39-.045.447-.158Z" clip-rule="evenodd"/><path d="M39.194 23.271v-1.103h-3.185v-.577h3.055v-1.08h-3.055v-.572h3.145V18.83h-4.639v4.441h4.679Zm11.475-3.326V18.83h-5.302v1.115h1.873v3.326h1.55v-3.326h1.879Zm2.038-1.115v4.441H51.15v-4.44h1.556Zm8.514 0v4.441h-1.556v-4.44h1.556Zm12.587 0v2.727c0 1.2-1.087 1.777-2.733 1.777-1.538 0-2.642-.572-2.642-1.918V18.83h1.533v2.586c0 .48.413.78 1.172.78.724 0 1.153-.31 1.153-.775v-2.59h1.517Zm6.107 3.06c0-.774-.492-1.182-1.64-1.306a38.72 38.72 0 0 0-1.08-.108c-.89-.096-1.156-.147-1.156-.373 0-.204.21-.3 1.008-.3.566 0 .883.108 1.007.272a.37.37 0 0 1 .09.203h1.63a1.56 1.56 0 0 0-.164-.497c-.295-.566-1.001-1.019-2.523-1.019-1.715 0-2.654.605-2.654 1.398 0 .763.532 1.21 1.969 1.34l.092.009.154.014.727.068c.753.08.956.13.956.368 0 .22-.197.34-1.03.34-.644 0-1.023-.097-1.16-.261a.556.556 0 0 1-.106-.238h-1.63c.017.113.045.294.108.442.276.622 1 1.097 2.681 1.097 1.805 0 2.721-.509 2.721-1.448Z"/><path fill-rule="evenodd" d="M40.352 24.972c-1.272 0-1.94.603-1.94 1.489 0 1 .701 1.508 1.94 1.508 1.365 0 1.938-.589 1.938-1.508 0-.934-.647-1.49-1.938-1.49Zm0 2.257c-.724 0-.933-.297-.933-.757 0-.452.228-.75.93-.75.768 0 .941.334.941.75 0 .441-.21.757-.938.757Z" clip-rule="evenodd"/><path d="M33.277 27.027c0-.504-.32-.768-1.066-.85a24.853 24.853 0 0 0-.702-.069c-.578-.063-.75-.096-.75-.243 0-.132.136-.195.654-.195.368 0 .574.07.655.177.04.051.055.092.059.132h1.058a1.006 1.006 0 0 0-.106-.323c-.191-.368-.651-.662-1.64-.662-1.114 0-1.725.393-1.725.908 0 .496.346.787 1.28.871.129.012.438.04.632.06.49.05.622.084.622.238 0 .144-.129.22-.67.22-.419 0-.665-.062-.753-.168a.362.362 0 0 1-.07-.155h-1.059c.011.074.03.192.07.287.18.405.65.713 1.743.713 1.173 0 1.768-.33 1.768-.94Z"/><path fill-rule="evenodd" d="M25.936 27.108c0 .199-.055.394-.166.522-.169.206-.485.294-.893.294h-2.563v-2.886h2.493c.397 0 .65.096.79.239.125.125.18.29.18.478s-.044.342-.14.456a.555.555 0 0 1-.348.188c.205.025.4.128.51.271a.677.677 0 0 1 .137.438Zm-1.24-1.011c.037-.04.06-.1.06-.17a.211.211 0 0 0-.07-.168c-.052-.048-.148-.067-.287-.067h-1.122v.471h1.147c.125 0 .221-.018.273-.066Zm-.165 1.173c.173 0 .276-.022.335-.077.036-.037.051-.092.051-.162 0-.074-.018-.129-.062-.173-.056-.048-.151-.07-.313-.07h-1.265v.482h1.254Z" clip-rule="evenodd"/><path d="M29.398 27.207v.717h-3.04v-2.886h3.014v.72h-2.044v.372h1.985v.702h-1.985v.375h2.07Zm7.457-2.169v.724h-1.22v2.162h-1.008v-2.162H33.41v-.724h3.446Zm8.8 0v.732h-1.96v.408h1.868v.724h-1.868v1.022h-.989v-2.886h2.949Zm4.982.724v-.724h-3.445v.724h1.217v2.162h1.007v-2.162h1.221Zm3.759-.724v2.886h-.985v-1.048h-1.478v1.048h-.986v-2.886h.986v1.052h1.478v-1.052h.985Zm3.624 2.886v-.717h-2.07v-.375h1.986v-.702H55.95v-.371h2.045v-.721H54.98v2.886h3.04Zm6.096-2.886h.952l-1.055 2.886h-1.08s-.578-1.724-.582-1.772c-.003.048-.585 1.772-.585 1.772H60.69l-1.08-2.886h1.069s.626 1.816.626 1.86c0-.044.577-1.86.577-1.86h1.033s.581 1.816.581 1.86c0-.044.621-1.86.621-1.86Z"/><path fill-rule="evenodd" d="M66.957 24.972c-1.272 0-1.941.603-1.941 1.489 0 1 .702 1.507 1.941 1.507 1.364 0 1.938-.588 1.938-1.507 0-.934-.648-1.49-1.938-1.49Zm0 2.257c-.724 0-.934-.297-.934-.757 0-.452.228-.75.93-.75.77 0 .941.334.941.75 0 .441-.21.757-.937.757Zm5.579-1.897c.131.136.194.324.194.585a.943.943 0 0 1-.147.544.704.704 0 0 1-.456.287l.871 1.176h-1.095l-.717-1.018h-.894v1.018h-.981v-2.886h2.298c.455 0 .754.11.927.294Zm-.795.827a.32.32 0 0 0 .033-.15.284.284 0 0 0-.033-.151c-.052-.096-.154-.121-.31-.121h-1.135v.525h1.154c.159 0 .254-.029.291-.103Z" clip-rule="evenodd"/><path d="M76.068 27.924v-.768h-1.757v-2.118h-.997v2.886h2.754Z"/><path fill-rule="evenodd" d="M79.967 26.428c0 .448-.044.691-.176.92-.199.363-.592.576-1.287.576H76.46v-2.886h2.022c.691 0 1.1.195 1.302.53.143.224.183.463.183.86Zm-1.65.787c.312 0 .489-.074.596-.236.066-.099.084-.33.084-.533-.004-.184-.026-.379-.085-.467-.114-.172-.286-.235-.588-.235h-.879v1.47h.871Z" clip-rule="evenodd"/><path d="M40.524 41.962H39s-.994 2.907-.994 2.977c0-.07-.93-2.977-.93-2.977h-1.653S34.5 44.87 34.5 44.94c0-.07-1-2.977-1-2.977h-1.712l1.73 4.619h1.723s.93-2.76.935-2.836c.006.077.93 2.836.93 2.836h1.73l1.688-4.619Zm2.085 4.618v-4.617H40.99v4.618h1.618Zm6.293-4.618v4.619h-1.577l-2.288-2.571v2.57h-1.518v-4.617h1.659l2.218 2.512v-2.513h1.506Zm6.302 4.618v-4.617h-1.506v2.512l-2.218-2.513h-1.659v4.619h1.518V44.01l2.289 2.57h1.576Zm5.786-1.146v1.147h-4.866v-4.619h4.824v1.154h-3.271v.594h3.177v1.123h-3.177v.6h3.312Z"/><path fill-rule="evenodd" d="M67.208 43.369c0-.418-.1-.718-.312-.936-.277-.294-.753-.47-1.483-.47h-3.676v4.618h1.57v-1.63h1.43l1.148 1.63h1.752l-1.394-1.883c.312-.047.565-.235.73-.459.146-.206.235-.512.235-.87Zm-1.53.147c0 .076-.012.17-.053.24-.059.118-.212.166-.464.166h-1.848v-.842h1.818c.247 0 .412.041.494.195a.443.443 0 0 1 .053.24Z" clip-rule="evenodd"/><path d="m35.826 33.815-.638-1.964-.638 1.964h-2.064l1.67 1.213-.638 1.964 1.67-1.214 1.67 1.214-.637-1.964 1.67-1.213h-2.065Zm6.728-1.965.651 1.964h2.107l-1.704 1.213.65 1.964-1.704-1.214-1.704 1.214.651-1.964-1.705-1.213h2.107l.651-1.964Zm7.959 1.964-.651-1.964-.651 1.964h-2.107l1.704 1.213-.651 1.964 1.705-1.214 1.704 1.214-.651-1.964 1.704-1.213h-2.106Zm6.656-1.964.651 1.964h2.107l-1.705 1.213.652 1.964-1.705-1.214-1.704 1.214.65-1.964-1.704-1.213h2.107l.651-1.964Zm8.004 1.964-.638-1.964-.639 1.964h-2.064l1.67 1.213-.638 1.964 1.67-1.214 1.67 1.214-.637-1.964 1.67-1.213h-2.064ZM91.96 10.791c.61-1.552.345-3.337-.218-4.839-.592-1.58-1.623-3.155-3.163-3.986-.077 1.665.432 3.31.987 4.793.5 1.334 1.113 2.755 2.125 3.858.156.836.275 1.67.359 2.499a6.335 6.335 0 0 0-1.558-2.317c-.874-.828-2.175-1.466-3.395-1.089.358 1.35 1.172 2.643 2.138 3.55.76.715 1.762 1.63 2.943 1.666a29.152 29.152 0 0 1-.08 3.625c-.166-.874-.523-1.696-1.04-2.309-.708-.842-1.759-1.87-3.1-1.698.073 1.366.618 2.765 1.377 3.816.602.836 1.398 1.9 2.528 2.176a28.646 28.646 0 0 1-.753 3.454c-.003-.864-.194-1.712-.573-2.392-.533-.96-1.365-2.156-2.708-2.25-.197 1.34.07 2.805.609 3.97.43.93 1.003 2.118 2.049 2.609a28.632 28.632 0 0 1-1.555 3.534c.21-.982.2-2.017-.046-2.948-.342-1.284-1.188-2.632-2.547-3.023-.481 1.417-.415 2.998-.135 4.439.23 1.185.68 2.578 1.692 3.348a28.615 28.615 0 0 1-2.192 3.069c.43-.957.642-2.003.528-2.96-.167-1.395-.558-2.887-1.982-3.63-.809 1.394-.996 2.958-1.064 4.503-.056 1.25.124 2.79.992 3.806a29.094 29.094 0 0 1-3.083 2.776c.71-.91 1.207-1.98 1.312-3.036.149-1.493.077-3.137-1.25-4.233-1.132 1.184-1.809 2.927-2.14 4.441-.293 1.339-.599 2.923.098 4.24a29.687 29.687 0 0 1-4.473 2.4c1.112-.791 2.022-1.878 2.455-3 .568-1.47.92-3.223-.186-4.696-1.483.95-2.573 2.57-3.431 4.047-.737 1.268-1.5 3.018-1.12 4.528-.875.296-1.772.557-2.69.78l.054.225a31.555 31.555 0 0 0 2.7-.783c.615 1.818 2.63 2.42 4.26 2.684 2.323.378 5.088-.354 7.07-1.829-1.046-1.478-3.18-1.628-4.79-1.742l-.022-.001a17.247 17.247 0 0 0-5.444.502 30.1 30.1 0 0 0 5.734-2.913l.024.038c.968 1.574 2.914 1.635 4.441 1.536 2.072-.135 4.464-1.395 5.847-3.136-1.302-1.142-3.224-.822-4.714-.575l-.008.002c-1.662.276-3.479.879-5.004 1.807a7.2 7.2 0 0 0 .425-.362 29.235 29.235 0 0 0 4.092-3.53l.052.052c1.207 1.205 2.96.887 4.33.492 1.836-.528 3.74-2.124 4.652-3.956-1.414-.792-3.105-.139-4.419.378-1.445.567-2.973 1.475-4.148 2.632.121-.153.237-.313.347-.478a29.015 29.015 0 0 0 2.938-3.944l.037.023.01.006c1.364.878 2.91.24 4.135-.387 1.663-.85 3-2.72 3.576-4.56-1.475-.472-2.931.455-4.064 1.19-1.24.803-2.496 1.95-3.358 3.264a6.18 6.18 0 0 0 .178-.398 28.892 28.892 0 0 0 2.1-4.534l.03.01.005.002c1.24.47 2.623-.263 3.524-1.068 1.251-1.118 2.135-2.837 2.342-4.517-1.294-.168-2.514.834-3.348 1.688-.96.983-1.822 2.146-2.352 3.438a4.77 4.77 0 0 0 .1-.429 28.958 28.958 0 0 0 1.088-4.56l.037.005c1.308.212 2.517-.783 3.24-1.749 1.018-1.359 1.542-3.24 1.41-4.945-1.307.091-2.303 1.335-2.948 2.342-.748 1.165-1.368 2.484-1.64 3.864.01-.11.014-.22.016-.332.199-1.586.27-3.204.205-4.843 1.335-.047 2.325-1.287 2.834-2.386.728-1.573.845-3.561.36-5.237-1.272.357-1.982 1.816-2.4 2.94-.483 1.294-.82 2.707-.822 4.111a30.456 30.456 0 0 0-.422-3.558Z"/></g></svg>