<svg xmlns="http://www.w3.org/2000/svg" width="44" height="36" fill="none"><path fill="#641320" d="M43.585 9.3a5.32 5.32 0 0 0-.254-.12c-1.301-.564-2.603-1.128-3.906-1.69-.238-.102-.482-.193-.726-.291-.023.073-.04.102-.04.13 0 .748.015 1.497-.002 2.244-.01.445.214 1.053-.09 1.288-.284.22-.868.039-1.317.068-.296.02-.373-.088-.37-.367.013-1.138-.047-2.28.03-3.412.04-.59-.183-.8-.668-1.013-4.3-1.877-8.59-3.776-12.879-5.675-1.395-.618-1.386-.615-2.756.001-6 2.7-12.025 5.343-18.07 7.94-.716.308-1.435.609-2.153.91-.213.09-.395.202-.383.468.01.252.218.32.4.404.085.04.177.062.265.094 2.88 1.065 5.76 2.132 8.644 3.191.29.107.394.266.39.585a355.88 355.88 0 0 0-.016 4.956c.003 1.152.515 1.937 1.615 2.308.414.14.455.341.454.697-.008 3.85-.004 7.699-.003 11.548 0 .187.012.374.006.56-.008.255.09.358.36.342.452-.027.908-.047 1.358-.015.4.029.482-.12.481-.494-.013-3.943-.007-7.886-.008-11.829 0-.467-.03-.936-.011-1.402.022-.537.26-.745.798-.748.687-.005 1.374-.002 2.062-.007.771-.007.958.172.96.962.006 2.43.01 4.862.011 7.293 0 2.135-.006 4.27-.006 6.405 0 .175-.056.37.188.473.589.25 1.166.522 1.725.837.227.128.395.048.398-.242.001-.124-.008-.248-.012-.372-.122-.15-.075-.329-.075-.495-.002-4.204 0-8.407.002-12.61 0-.152-.04-.315.08-.447.006-.357.002-.715.02-1.072.027-.514.254-.732.762-.735.781-.004 1.562 0 2.344.004.63.002.822.2.822.844l-.002 9.585c0 1.714-.002 3.429.007 5.143.002.486.103.538.512.278.451-.286.936-.5 1.43-.69.26-.1.344-.233.34-.51-.017-1.512-.013-3.023-.014-4.535-.004-3.055-.008-6.11-.008-9.164 0-.776.19-.956.974-.954l1.969.007c.727.004.888.174.888.923v10.473c0 .888.013 1.777 0 2.665-.005.322.106.436.433.422.483-.02.968-.004 1.452.012.201.007.28-.055.274-.262-.012-.358-.001-.717-.001-1.075.001-3.725.005-7.45 0-11.175 0-.307.05-.478.405-.596 1.127-.374 1.704-1.302 1.677-2.412-.04-1.651-.007-3.304.004-4.956 0-.156-.072-.362.152-.445.83-.308 1.662-.611 2.522-.927 0 .82-.003 1.583.002 2.345.002.19-.053.292-.249.382-.5.228-.81.857-.64 1.356.127.37.07.678.009 1.053-.253 1.549-.428 3.112-.599 4.674-.068.615.051.716.666.72 1.094.01 2.187.002 3.28.009.403.002.578-.193.537-.58-.06-.573-.1-1.15-.205-1.716-.223-1.202-.136-2.455-.602-3.616-.043-.105.052-.17.089-.251.284-.635.12-1.265-.46-1.63-.18-.113-.266-.215-.262-.433.015-.841.027-1.683.009-2.524-.007-.292.122-.422.363-.513.598-.226 1.193-.46 1.791-.686.934-.352 1.871-.694 2.802-1.051.192-.075.443-.12.44-.413-.003-.272-.22-.352-.415-.45V9.3ZM14.04 11.054c-.138-.31-.431-.295-.687-.198-.552.208-1.092.45-1.665.69-.106-.371-.073-.595.311-.784 1.8-.886 3.729-1.303 5.69-1.613a17.818 17.818 0 0 1 2.376-.21c.109-.08.236-.067.36-.071 2.235-.083 4.451.046 6.651.491 1.655.335 3.271.777 4.833 1.417.127.052.276.072.366.194.09.124.087.268.055.404-.032.138-.133.085-.22.05-1.187-.485-2.425-.797-3.664-1.109-.043-.005-.089-.02-.13-.033-2.453-.462-4.93-.44-7.41-.392-.277.006-.502.06-.558.368-.055.303.041.521.377.577 2.901-.192 5.76.109 8.58.775.958.226 1.865.617 2.767 1.008.254.11.402.546.288.778-.048.098-.112.089-.188.055-.997-.453-2.078-.655-3.103-1.025-2.313-.462-4.652-.613-7.007-.579-.405.006-.81.024-1.214.006-.367-.016-.537.2-.542.496-.006.299.17.53.524.53l1.681.007a23.291 23.291 0 0 1 3.545.128c1.37.144 2.697.466 4.02.832.71.196 1.375.5 2.057.766.376.147.213.455.201.716 0 .006-.023.017-.033.016-.014-.003-.026-.016-.04-.025-6.871-2.16-13.735-2.049-20.606.022-.101-.359.028-.595.456-.74.53-.179 1.032-.439 1.546-.663.373-.162.542-.45.396-.826-.154-.393-.5-.305-.8-.196-.524.192-1.04.408-1.573.619-.16-.464-.073-.772.438-.941.44-.146.857-.368 1.283-.561.155-.07.31-.148.454-.239.294-.184.307-.465.185-.74Zm18.431 7.451c-.027.18-.093.206-.24.162-2.635-.786-5.346-.621-8.043-.634-2.203-.01-4.405.002-6.608-.004-1.954-.005-3.898.08-5.793.621-.172.05-.268.043-.262-.17.007-.265.008-.53-.002-.795-.012-.284.226-.316.399-.385a20.1 20.1 0 0 1 3.95-1.128c2.017-.358 4.05-.546 6.103-.504 3.306.035 6.574.328 9.71 1.484.834.307.92.468.786 1.353Zm5.167 2.86c-.434.105-.551-.039-.51-.418.094-.849.149-1.702.231-2.552.01-.112-.065-.308.177-.304.203.005.204.159.218.295.1.927.207 1.852.29 2.78.037.42-.32.125-.406.2ZM20.43 8.926Z"/><path fill="#641320" d="M22.163 23.757c-.378-.016-.559.223-.57.59-.005.172-.006.343-.006.514v4.624h-.008c0 1.619-.002 3.238.001 4.857 0 .186.004.375.037.557.05.277.265.374.517.373.238 0 .427-.114.48-.361a2.2 2.2 0 0 0 .035-.464c.006-2.382.009-4.763.012-7.145.001-.98-.003-1.961.004-2.942.002-.353-.15-.588-.502-.603Zm-6.304 10.354c.354.004.574-.28.574-.744v-4.434h.006v-4.434c0-.468-.215-.737-.58-.737-.348 0-.555.256-.555.711-.002 2.972-.002 5.944 0 8.916 0 .436.226.719.555.722Zm12.97-5.157v-.046l.006-4.436c0-.546-.287-.796-.743-.657-.32.098-.358.349-.359.627-.003 1.681-.01 3.362-.01 5.043-.002 1.245.003 2.49.006 3.736 0 .093.002.186.004.28.005.346.173.59.523.586.353-.005.562-.215.56-.603-.006-1.51-.002-3.02-.002-4.53h.015Zm-8.8-6.812c-.002 4.272-.002 8.544 0 12.817 0 .123-.02.249.031.368.008-1.9.02-3.8.02-5.701.001-2.617-.008-5.234-.014-7.85-.061.116-.037.243-.037.366Z"/><path fill="#641320" d="M19.987 22.222c-.003 4.203-.004 8.406-.002 12.61 0 .166-.047.345.075.495-.052-.12-.031-.245-.032-.368V22.142c0-.123-.023-.25.038-.366-.12.132-.079.294-.079.446Zm8.46-11.907-.13-.033c.041.013.087.028.13.033Zm9.309 8.071c-.015-.136-.016-.29-.22-.295-.24-.004-.165.192-.176.304-.082.85-.137 1.703-.23 2.552-.042.38.075.523.51.419.085-.075.442.22.405-.2-.083-.928-.19-1.854-.29-2.78Z"/></svg>