<svg xmlns="http://www.w3.org/2000/svg" width="72" height="58" fill="none"><path fill="#641320" d="M23.883 19.934v-2.291H22.6v2.177c0 .39-.364.65-.976.65-.641 0-.99-.251-.99-.655v-2.172h-1.297v2.172c0 1.13.933 1.611 2.234 1.611 1.392 0 2.31-.485 2.31-1.492Zm4.317 1.44v-.994h-2.287v-2.737h-1.296v3.73H28.2Zm3.853-2.794v-.937H27.57v.936h1.584v2.795h1.31v-2.795h1.589Zm1.723 2.794v-3.731h-1.315v3.73h1.315Zm6.035 0v-3.731H38.19l-1.024 2.238-.976-2.238h-1.674v3.73h1.22V19.36l.88 2.015h1.09l.89-2.015v2.015h1.215Zm2.032-.69h2.028l.33.69h1.383l-1.895-3.731h-1.544l-2.005 3.73h1.354l.349-.689Zm1.622-.836h-1.201l.474-.898.143-.342.134.337.45.903Zm6.185-1.268v-.937h-4.482v.936h1.583v2.795h1.311v-2.795h1.588Zm4.359 2.794v-.927h-2.693v-.485H53.9v-.907h-2.583v-.48h2.66v-.932h-3.922v3.73h3.955Zm-24.895 1.983h-1.239s-.808 2.348-.808 2.405c0-.057-.756-2.405-.756-2.405h-1.344s-.751 2.348-.751 2.405c0-.057-.813-2.405-.813-2.405H22.01l1.406 3.73h1.402s.756-2.228.76-2.29c.005.062.756 2.29.756 2.29h1.406l1.373-3.73Zm1.696 3.731v-3.731h-1.316v3.73h1.316Zm5.117 0v-3.731h-1.225v2.03l-1.803-2.03h-1.35v3.73h1.235v-2.076l1.86 2.077h1.283Zm5.124 0v-3.731h-1.224v2.03l-1.804-2.03h-1.349v3.73h1.234v-2.076l1.861 2.077h1.282Zm4.704 0v-.927h-2.693v-.485h2.583v-.908h-2.583v-.48h2.66v-.931h-3.923v3.73h3.956Zm5.057-2.595c0-.338-.082-.58-.254-.756-.225-.237-.612-.38-1.206-.38h-2.99v3.73h1.278v-1.316h1.162l.934 1.317h1.425l-1.134-1.521a.917.917 0 0 0 .593-.37c.12-.167.192-.414.192-.704Zm-1.244.119c0 .061-.01.137-.044.194-.047.095-.172.133-.377.133h-1.502v-.68h1.477c.202 0 .336.034.402.158.034.047.044.123.044.194Zm-25.146 6.146v-1.823h-.448v1.794c0 .424-.401.664-.979.664-.683 0-1.018-.258-1.018-.667v-1.791h-.452v1.776c0 .747.585 1.077 1.452 1.077.896 0 1.445-.352 1.445-1.03Zm3.213.994v-.413h-1.954v-2.404h-.451v2.817h2.405Zm2.566-2.408v-.409h-3.012v.41h1.278v2.407h.455v-2.408h1.279Zm3.21.388a.833.833 0 0 0-.119-.467c-.133-.197-.39-.33-.816-.33H30.64v2.817h.444v-1.188h1.293l.791 1.188h.52l-.855-1.263a.626.626 0 0 0 .476-.305.893.893 0 0 0 .101-.452Zm-.447.035a.585.585 0 0 1-.051.241c-.058.104-.191.158-.408.162h-1.416v-.833h1.333c.27 0 .415.065.491.186.033.058.05.155.05.244Zm1.733 1.289h1.766l.361.696h.484l-1.437-2.817h-.531l-1.485 2.817h.473l.369-.696Zm1.578-.399h-1.383l.574-1.08.127-.262.126.262.556 1.08Zm5.615.826a.778.778 0 0 0 .162-.51c0-.186-.054-.373-.166-.488a.84.84 0 0 0-.491-.215.44.44 0 0 0 .267-.165.737.737 0 0 0 .155-.47.653.653 0 0 0-.18-.481c-.134-.133-.362-.219-.68-.219H39.05v2.817h2.048c.383 0 .65-.097.791-.269Zm-.539-1.759c0 .126-.04.237-.108.302-.069.075-.184.108-.307.108H39.49v-.811h1.362c.166 0 .292.032.379.11a.4.4 0 0 1 .12.291Zm.145 1.486c-.09.1-.246.151-.474.151h-1.531v-.836h1.542c.21 0 .354.043.441.125.08.076.112.173.112.284 0 .115-.025.212-.09.276Zm3.835.542v-.413h-2.203v-.803h2.116v-.41h-2.116v-.782h2.178v-.409h-2.619v2.817h2.644Zm3.529-.832c0-.46-.307-.697-1.062-.783-.127-.018-.401-.046-.55-.064-.7-.083-.913-.176-.913-.417 0-.233.235-.366.943-.366.548 0 .83.108.972.302a.44.44 0 0 1 .072.168h.483a.995.995 0 0 0-.097-.29c-.195-.334-.596-.575-1.43-.575-.997-.003-1.409.356-1.409.8 0 .446.322.672 1.156.769.144.018.4.046.527.06.647.08.85.177.85.446 0 .247-.232.427-.973.427-.606 0-.931-.108-1.062-.316a.458.458 0 0 1-.068-.208h-.477a.91.91 0 0 0 .112.38c.188.341.629.539 1.481.539 1.019 0 1.445-.327 1.445-.873Zm3.239-1.576v-.409h-3.013v.41h1.279v2.407h.455v-2.408h1.28ZM20.246 34.2c0-.286-.057-.48-.155-.627-.137-.212-.405-.323-.87-.323h-1.792v2.817h.448v-.919h1.326c.437-.004.736-.104.895-.334.101-.14.148-.34.148-.613Zm-.455 0c0 .144-.014.252-.061.324-.083.132-.253.215-.603.215h-1.25v-1.087h1.264c.329 0 .499.075.589.222.043.065.061.183.061.327Zm3.725 1.867v-.413h-2.204v-.804h2.117v-.409h-2.117v-.782h2.178v-.41h-2.618v2.818h2.644Zm3.446-2.021a.833.833 0 0 0-.12-.466c-.133-.198-.39-.33-.816-.33h-1.835v2.817h.444v-1.188h1.293l.791 1.188h.52l-.855-1.264a.626.626 0 0 0 .476-.304.893.893 0 0 0 .102-.453Zm-.448.036a.586.586 0 0 1-.051.24c-.058.105-.192.158-.408.162h-1.416v-.832h1.333c.27 0 .415.064.491.186.032.058.05.154.05.244Zm3.796-.423v-.41h-2.52v2.818h.448v-1.199h1.98v-.42h-1.98v-.79h2.073Zm2.056-.459c-.603 0-1.019.146-1.315.455-.249.24-.357.574-.357.994 0 .46.14.804.4 1.037.279.277.705.42 1.272.42.585 0 1.04-.143 1.311-.434.235-.237.358-.574.358-1.026 0-.438-.105-.772-.354-1.009-.285-.294-.712-.438-1.315-.438Zm0 2.504c-.397 0-.68-.086-.892-.258-.217-.176-.322-.445-.322-.79 0-.323.09-.592.264-.753.199-.187.502-.298.946-.298.46 0 .744.108.958.294.18.158.26.438.26.754 0 .32-.083.592-.268.757-.213.197-.512.294-.946.294Zm5.058-1.658a.833.833 0 0 0-.12-.466c-.133-.198-.39-.33-.816-.33h-1.835v2.817h.445v-1.188h1.293l.79 1.188h.521l-.856-1.264a.626.626 0 0 0 .477-.304.892.892 0 0 0 .1-.453Zm-.448.036a.586.586 0 0 1-.05.24c-.058.105-.192.158-.409.162h-1.416v-.832h1.333c.271 0 .416.064.491.186.033.058.05.154.05.244Zm4.768 1.985V33.25h-.585l-1.167 2.318-1.145-2.318h-.596v2.817h.43v-2.168l1.07 2.168h.469l1.094-2.168v2.168h.43Zm1.269-.697h1.766l.361.697h.484l-1.437-2.817h-.531l-1.485 2.817h.473l.369-.697Zm1.578-.398h-1.383l.574-1.08.127-.262.126.262.556 1.08Zm4.287 1.095V33.25h-.43v2.189l-1.878-2.19h-.509v2.818h.437v-2.204l1.893 2.204h.487Zm3.897-1.052h-.47a.624.624 0 0 1-.156.355c-.194.227-.505.324-.981.324-.401 0-.831-.112-1.038-.402-.108-.137-.177-.338-.177-.64 0-.268.048-.47.152-.606.173-.276.538-.42 1.052-.42.498 0 .812.137.979.327.093.1.148.219.165.359h.47a1.08 1.08 0 0 0-.173-.502c-.232-.342-.658-.61-1.438-.61-.743 0-1.188.236-1.434.591-.159.205-.239.492-.239.858 0 .41.099.71.268.922.246.334.719.535 1.434.535.734 0 1.17-.219 1.388-.567.122-.169.183-.37.198-.524Zm3.232 1.052v-.413h-2.204v-.804h2.118v-.409h-2.118v-.782h2.179v-.41h-2.62v2.818h2.645Zm-33.033 2.798.54 1.652h1.748l-1.414 1.021.54 1.652-1.414-1.021-1.415 1.02.54-1.651-1.414-1.02h1.748l.54-1.653Zm6.236 0 .551 1.652h1.784l-1.443 1.021.551 1.652-1.443-1.021-1.443 1.02.551-1.651-1.443-1.02h1.784l.551-1.653Zm6.187 0 .551 1.652h1.784l-1.443 1.021.551 1.652-1.443-1.021-1.443 1.02.551-1.651-1.443-1.02h1.784l.551-1.653Zm6.187 0 .551 1.652h1.784l-1.443 1.021.551 1.652-1.443-1.021-1.443 1.02.551-1.651-1.443-1.02h1.784l.551-1.653Zm6.236 0 .54 1.652h1.75l-1.416 1.021.54 1.652-1.413-1.021-1.415 1.02.54-1.651-1.414-1.02h1.748l.54-1.653ZM26.004 10.997l.408 1.249h1.322l-1.07.772.41 1.249-1.07-.772-1.07.772.409-1.25-1.07-.771h1.322l.409-1.249Zm4.715-.002.417 1.25h1.348l-1.09.771.416 1.249-1.091-.772-1.091.772.417-1.249-1.092-.772h1.35l.416-1.249Zm4.678 0 .417 1.25h1.348l-1.09.771.416 1.249-1.091-.772-1.091.772.416-1.249-1.09-.772h1.348l.417-1.249Zm4.678 0 .417 1.25h1.349l-1.091.771.416 1.249-1.09-.772-1.092.772.417-1.249-1.091-.772h1.348l.417-1.249Zm4.715 0 .408 1.25h1.322l-1.07.771.41 1.249-1.07-.772-1.07.772.41-1.249-1.07-.772h1.322l.408-1.249Z"/><path fill="#641320" fill-rule="evenodd" d="M7.177 33.476c-1.802-11.204 3.458-22.29 13.99-27.05l.097.212C10.838 11.35 5.621 22.328 7.409 33.439c1.978 12.294 11.96 19.666 24.184 20.022l-.007.233c-12.32-.358-22.41-7.798-24.409-20.218Z" clip-rule="evenodd"/><path fill="#641320" d="M18.883 9.285c-1.946.044-4.224 1.134-5.568 2.718 1.078.995 2.812.627 4.06.424 1.782-.29 3.676-.853 5.357-1.649-.692-1.461-2.553-1.522-3.849-1.493Z"/><path fill="#641320" d="M17.353 6.9a34.81 34.81 0 0 1-4.022 5.118c-1.25-1.166-.496-3.108.015-4.315.924-2.187 3.142-4.074 5.46-5.04.636 1.44-.746 3.142-1.453 4.237Zm-4.102 7.388c-1.822.644-3.388 2.455-4.174 4.274 1.31.606 2.8-.269 3.89-.85 1.496-.8 3.023-1.903 4.224-3.179-1.085-1.138-2.733-.67-3.94-.245Z"/><path fill="#641320" d="M11.042 12.505a27.648 27.648 0 0 1-1.946 6.066c-1.533-.718-1.475-2.776-1.409-4.085.112-2.235 1.37-4.784 3.123-6.404 1.072 1.143.486 3.127.232 4.423Zm-1.297 8.242c-1.519 1.19-2.44 3.396-2.652 5.366 1.436.163 2.584-1.136 3.439-2.027 1.163-1.213 2.264-2.735 2.963-4.327-1.37-.742-2.761.213-3.75.988Z"/><path fill="#641320" d="M7.114 19.742c.27 2.055.271 4.278 0 6.373-1.67-.204-2.224-2.197-2.552-3.447-.565-2.158-.186-4.945.915-7.043 1.376.756 1.464 2.804 1.637 4.117Zm1.439 8.055c-1.201 1.75-1.624 4.49-1.084 6.693 1.588-.374 2.375-2.16 3.007-3.421.84-1.677 1.55-3.633 1.804-5.552-1.722-.356-2.935 1.128-3.727 2.28Z"/><path fill="#641320" d="M5.399 27.62a31.83 31.83 0 0 1 2.094 6.864c-1.821.39-3.132-1.51-3.893-2.77-1.356-2.243-1.75-5.352-1.254-8.034 1.667.332 2.482 2.629 3.053 3.94Zm3.995 7.786c-.646 2.122-.197 5.006 1.11 7 1.435-.928 1.633-2.972 1.837-4.438.268-1.933.394-4.075.061-6.08-1.836.232-2.577 2.101-3.008 3.518Z"/><path fill="#641320" d="M6.203 36.314a37.583 37.583 0 0 1 4.322 6.078c-1.662 1.031-3.612-.377-4.795-1.374-2.099-1.768-3.461-4.773-3.784-7.605 1.746-.234 3.285 1.794 4.257 2.901Zm6.577 6.313c.138 2.47 1.756 5.06 3.91 6.535 1.04-1.415.389-3.584.034-5.097-.478-2.038-1.14-4.16-2.122-6.044-1.714.9-1.914 2.98-1.823 4.606Z"/><path fill="#641320" d="M9.881 44.713a59.858 59.858 0 0 1 6.826 4.427c-1.296 1.696-3.886 1.02-5.492.475-2.83-.96-5.353-3.492-6.67-6.305 1.67-.855 3.957.641 5.336 1.403Zm9.546 3.947c1.401 2.54 4.594 4.197 7.6 4.596.324-1.847-1.687-3.675-2.783-4.871-1.56-1.703-3.187-3.47-5.01-4.943-1.365 1.575-.643 3.7.193 5.218Z"/><path fill="#641320" d="M17.426 51.879c3.185.329 6.424.802 9.606 1.349-.303 2.33-4.025 2.706-5.715 2.843-3.464.282-7.318-1.101-10.001-3.43 1.333-1.558 4.414-.937 6.11-.762ZM23.56 4.47c-2.138.606-4.64 1.756-5.877 3.878 2.244-.243 4.45-1.037 6.607-1.641 2.416-.677 4.96-1.184 7.3-2.118-2.562-1.019-5.582-.813-8.03-.12Z"/><path fill="#641320" fill-rule="evenodd" d="M64.925 33.44c1.787-11.113-3.43-22.09-13.855-26.802l.097-.212c10.531 4.76 15.792 15.845 13.99 27.05-1.998 12.42-12.09 19.86-24.41 20.218l-.006-.233c12.224-.356 22.206-7.728 24.184-20.022Z" clip-rule="evenodd"/><path fill="#641320" d="M53.45 9.285c1.946.044 4.224 1.134 5.569 2.718-1.078.995-2.813.627-4.06.424-1.782-.29-3.677-.853-5.357-1.649.691-1.461 2.552-1.522 3.848-1.493Z"/><path fill="#641320" d="M54.98 6.9a34.86 34.86 0 0 0 4.022 5.118c1.251-1.166.496-3.108-.015-4.315-.924-2.187-3.141-4.074-5.46-5.04-.636 1.44.746 3.142 1.454 4.237Zm4.103 7.388c1.822.644 3.388 2.455 4.174 4.274-1.31.606-2.8-.269-3.89-.85-1.497-.8-3.023-1.903-4.224-3.179 1.085-1.138 2.733-.67 3.94-.245Z"/><path fill="#641320" d="M61.291 12.505a27.637 27.637 0 0 0 1.946 6.066c1.534-.718 1.476-2.776 1.41-4.085-.113-2.235-1.37-4.784-3.123-6.404-1.073 1.143-.486 3.127-.233 4.423Zm1.298 8.242c1.518 1.19 2.439 3.396 2.652 5.366-1.436.163-2.584-1.136-3.439-2.027-1.163-1.213-2.265-2.735-2.963-4.327 1.369-.742 2.76.213 3.75.988Z"/><path fill="#641320" d="M65.22 19.742a25.088 25.088 0 0 0 0 6.373c1.67-.204 2.225-2.197 2.552-3.447.565-2.158.185-4.945-.915-7.043-1.376.756-1.465 2.804-1.637 4.117Zm-1.44 8.055c1.202 1.75 1.624 4.49 1.084 6.693-1.588-.374-2.375-2.16-3.007-3.421-.84-1.677-1.55-3.633-1.804-5.552 1.722-.356 2.936 1.128 3.727 2.28Z"/><path fill="#641320" d="M66.935 27.62a31.821 31.821 0 0 0-2.094 6.864c1.82.39 3.13-1.51 3.893-2.77 1.355-2.243 1.75-5.352 1.254-8.034-1.667.332-2.483 2.629-3.053 3.94Zm-3.995 7.786c.645 2.122.197 5.006-1.11 7-1.435-.928-1.634-2.972-1.837-4.438-.268-1.933-.395-4.075-.062-6.08 1.836.232 2.578 2.101 3.009 3.518Z"/><path fill="#641320" d="M66.13 36.314a37.655 37.655 0 0 0-4.322 6.078c1.662 1.031 3.613-.377 4.796-1.374 2.098-1.768 3.46-4.773 3.784-7.605-1.747-.234-3.286 1.794-4.258 2.901Zm-6.576 6.313c-.138 2.47-1.757 5.06-3.91 6.535-1.042-1.415-.389-3.584-.035-5.097.478-2.038 1.14-4.16 2.122-6.044 1.715.9 1.914 2.98 1.823 4.606Z"/><path fill="#641320" d="M62.452 44.713a59.85 59.85 0 0 0-6.825 4.427c1.296 1.696 3.886 1.02 5.491.475 2.83-.96 5.354-3.492 6.671-6.305-1.67-.855-3.958.641-5.337 1.403Zm-9.546 3.947c-1.4 2.54-4.593 4.197-7.6 4.596-.324-1.847 1.688-3.675 2.784-4.871 1.56-1.703 3.186-3.47 5.009-4.943 1.366 1.575.643 3.7-.193 5.218Z"/><path fill="#641320" d="M54.907 51.879c-3.185.329-6.423.802-9.606 1.349.304 2.33 4.026 2.706 5.715 2.843 3.465.282 7.319-1.101 10.001-3.43-1.332-1.558-4.413-.937-6.11-.762ZM48.773 4.47c2.138.606 4.641 1.756 5.877 3.878-2.244-.243-4.45-1.037-6.606-1.641-2.417-.677-4.96-1.184-7.3-2.118 2.562-1.019 5.582-.813 8.03-.12ZM37.557 3.372 36.46.967l-1.076 2.36-2.504-1.542 1.609 3.358h4l1.551-3.358-2.483 1.587Zm.907 2.293h-4.007v.588h4.007v-.588ZM36.747 51.11l.645 1.974h2.09l-1.69 1.22.645 1.974-1.69-1.22-1.69 1.22.645-1.974-1.69-1.22h2.09l.645-1.975Z"/></svg>